<mxfile host="app.diagrams.net" modified="2024-07-17T12:40:49.177Z" agent="Mozilla/5.0 (Macintosh; Intel Mac OS X 10_15_7) AppleWebKit/537.36 (KHTML, like Gecko) Chrome/126.0.0.0 Safari/537.36" etag="x3IoVsL1AcD_zRFNU-Am" version="24.5.5" type="device">
  <diagram name="Seite-1" id="QlhiIvQ4_2E_zhbugzKK">
    <mxGraphModel dx="2069" dy="1954" grid="1" gridSize="10" guides="1" tooltips="1" connect="1" arrows="1" fold="1" page="1" pageScale="1" pageWidth="827" pageHeight="1169" math="0" shadow="0">
      <root>
        <mxCell id="0" />
        <mxCell id="1" parent="0" />
        <mxCell id="y9lGfiteLyOonodlUq__-44" value="" style="whiteSpace=wrap;html=1;strokeColor=none;" parent="1" vertex="1">
          <mxGeometry x="30" y="-820" width="400" height="475" as="geometry" />
        </mxCell>
        <mxCell id="5CUBUq4CtGVq6OdzhweH-41" value="Piece #1" style="whiteSpace=wrap;html=1;fontStyle=1;fillColor=#f5f5f5;strokeColor=#66B2FF;fontColor=#333333;" parent="1" vertex="1">
          <mxGeometry x="80" y="2302" width="280" height="60" as="geometry" />
        </mxCell>
        <mxCell id="5CUBUq4CtGVq6OdzhweH-28" value="TransportMovement&lt;br&gt;LH400/16OCT2023 FRA-JFK" style="whiteSpace=wrap;html=1;fontStyle=1;fillColor=#f5f5f5;strokeColor=#66B2FF;fontColor=#333333;" parent="1" vertex="1">
          <mxGeometry x="860" y="1400" width="280" height="60" as="geometry" />
        </mxCell>
        <mxCell id="KiZJLOA3F3ZZ3r3pBosK-10" style="edgeStyle=orthogonalEdgeStyle;rounded=0;orthogonalLoop=1;jettySize=auto;html=1;entryX=0;entryY=0.5;entryDx=0;entryDy=0;exitX=0.058;exitY=0.967;exitDx=0;exitDy=0;exitPerimeter=0;startArrow=classic;startFill=1;strokeColor=#66B2FF;" parent="1" source="KiZJLOA3F3ZZ3r3pBosK-2" target="KiZJLOA3F3ZZ3r3pBosK-4" edge="1">
          <mxGeometry relative="1" as="geometry" />
        </mxCell>
        <mxCell id="KiZJLOA3F3ZZ3r3pBosK-2" value="Shipment" style="whiteSpace=wrap;html=1;fontStyle=1;fillColor=#f5f5f5;strokeColor=#66B2FF;fontColor=#333333;" parent="1" vertex="1">
          <mxGeometry x="40" y="-110" width="330" height="60" as="geometry" />
        </mxCell>
        <mxCell id="KiZJLOA3F3ZZ3r3pBosK-4" value="Piece" style="whiteSpace=wrap;html=1;fontStyle=1;fillColor=#f5f5f5;strokeColor=#66B2FF;fontColor=#333333;" parent="1" vertex="1">
          <mxGeometry x="80" y="12" width="280" height="60" as="geometry" />
        </mxCell>
        <mxCell id="KiZJLOA3F3ZZ3r3pBosK-8" value="FOH&lt;br&gt;(PLAN)" style="rhombus;whiteSpace=wrap;html=1;labelBackgroundColor=none;labelBorderColor=none;fillColor=#d5e8d4;strokeColor=#82b366;" parent="1" vertex="1">
          <mxGeometry x="80" y="52" width="60" height="60" as="geometry" />
        </mxCell>
        <mxCell id="KiZJLOA3F3ZZ3r3pBosK-9" value="RCS&lt;br&gt;(PLAN)" style="rhombus;whiteSpace=wrap;html=1;labelBackgroundColor=none;labelBorderColor=none;fillColor=#d5e8d4;strokeColor=#82b366;" parent="1" vertex="1">
          <mxGeometry x="140" y="52" width="60" height="60" as="geometry" />
        </mxCell>
        <mxCell id="KiZJLOA3F3ZZ3r3pBosK-1" value="BKD&lt;br&gt;(ACT)" style="rhombus;whiteSpace=wrap;html=1;labelBackgroundColor=none;labelBorderColor=none;fillColor=#d5e8d4;strokeColor=#82b366;" parent="1" vertex="1">
          <mxGeometry x="64" y="-68" width="60" height="60" as="geometry" />
        </mxCell>
        <mxCell id="KiZJLOA3F3ZZ3r3pBosK-6" value="FOH&lt;br&gt;(PLAN)" style="rhombus;whiteSpace=wrap;html=1;labelBackgroundColor=none;labelBorderColor=none;fillColor=#d5e8d4;strokeColor=#82b366;" parent="1" vertex="1">
          <mxGeometry x="124" y="-68" width="60" height="60" as="geometry" />
        </mxCell>
        <mxCell id="KiZJLOA3F3ZZ3r3pBosK-7" value="RCS&lt;br&gt;(PLAN)" style="rhombus;whiteSpace=wrap;html=1;labelBackgroundColor=none;labelBorderColor=none;fillColor=#d5e8d4;strokeColor=#82b366;" parent="1" vertex="1">
          <mxGeometry x="184" y="-68" width="60" height="60" as="geometry" />
        </mxCell>
        <mxCell id="KiZJLOA3F3ZZ3r3pBosK-11" style="edgeStyle=orthogonalEdgeStyle;rounded=0;orthogonalLoop=1;jettySize=auto;html=1;entryX=0;entryY=0.5;entryDx=0;entryDy=0;exitX=0.058;exitY=0.967;exitDx=0;exitDy=0;exitPerimeter=0;startArrow=classic;startFill=1;strokeColor=#66B2FF;" parent="1" source="KiZJLOA3F3ZZ3r3pBosK-12" target="KiZJLOA3F3ZZ3r3pBosK-13" edge="1">
          <mxGeometry relative="1" as="geometry" />
        </mxCell>
        <mxCell id="KiZJLOA3F3ZZ3r3pBosK-12" value="Shipment" style="whiteSpace=wrap;html=1;fontStyle=1;fillColor=#f5f5f5;strokeColor=#66B2FF;fontColor=#333333;" parent="1" vertex="1">
          <mxGeometry x="40" y="458" width="330" height="60" as="geometry" />
        </mxCell>
        <mxCell id="KiZJLOA3F3ZZ3r3pBosK-25" style="edgeStyle=orthogonalEdgeStyle;rounded=0;orthogonalLoop=1;jettySize=auto;html=1;entryX=0;entryY=0.5;entryDx=0;entryDy=0;startArrow=classic;startFill=1;strokeColor=#66B2FF;" parent="1" source="KiZJLOA3F3ZZ3r3pBosK-13" target="KiZJLOA3F3ZZ3r3pBosK-23" edge="1">
          <mxGeometry relative="1" as="geometry" />
        </mxCell>
        <mxCell id="KiZJLOA3F3ZZ3r3pBosK-13" value="Piece" style="whiteSpace=wrap;html=1;fontStyle=1;fillColor=#f5f5f5;strokeColor=#66B2FF;fontColor=#333333;" parent="1" vertex="1">
          <mxGeometry x="80" y="580" width="280" height="60" as="geometry" />
        </mxCell>
        <mxCell id="KiZJLOA3F3ZZ3r3pBosK-14" value="FOH&lt;br&gt;(PLAN)" style="rhombus;whiteSpace=wrap;html=1;labelBackgroundColor=none;labelBorderColor=none;fillColor=#d5e8d4;strokeColor=#82b366;" parent="1" vertex="1">
          <mxGeometry x="80" y="620" width="60" height="60" as="geometry" />
        </mxCell>
        <mxCell id="KiZJLOA3F3ZZ3r3pBosK-15" value="RCS&lt;br&gt;(PLAN)" style="rhombus;whiteSpace=wrap;html=1;labelBackgroundColor=none;labelBorderColor=none;fillColor=#d5e8d4;strokeColor=#82b366;" parent="1" vertex="1">
          <mxGeometry x="140" y="620" width="60" height="60" as="geometry" />
        </mxCell>
        <mxCell id="KiZJLOA3F3ZZ3r3pBosK-16" value="BKD&lt;br&gt;(ACT)" style="rhombus;whiteSpace=wrap;html=1;labelBackgroundColor=none;labelBorderColor=none;fillColor=#d5e8d4;strokeColor=#82b366;" parent="1" vertex="1">
          <mxGeometry x="64" y="500" width="60" height="60" as="geometry" />
        </mxCell>
        <mxCell id="KiZJLOA3F3ZZ3r3pBosK-17" value="FOH&lt;br&gt;(PLAN)" style="rhombus;whiteSpace=wrap;html=1;labelBackgroundColor=none;labelBorderColor=none;fillColor=#d5e8d4;strokeColor=#82b366;" parent="1" vertex="1">
          <mxGeometry x="124" y="500" width="60" height="60" as="geometry" />
        </mxCell>
        <mxCell id="KiZJLOA3F3ZZ3r3pBosK-18" value="RCS&lt;br&gt;(PLAN)" style="rhombus;whiteSpace=wrap;html=1;labelBackgroundColor=none;labelBorderColor=none;fillColor=#d5e8d4;strokeColor=#82b366;" parent="1" vertex="1">
          <mxGeometry x="184" y="500" width="60" height="60" as="geometry" />
        </mxCell>
        <mxCell id="KiZJLOA3F3ZZ3r3pBosK-19" value="MAN&lt;br&gt;(PLAN)" style="rhombus;whiteSpace=wrap;html=1;labelBackgroundColor=none;labelBorderColor=none;fillColor=#d5e8d4;strokeColor=#82b366;" parent="1" vertex="1">
          <mxGeometry x="244" y="500" width="60" height="60" as="geometry" />
        </mxCell>
        <mxCell id="KiZJLOA3F3ZZ3r3pBosK-20" value="DEP&lt;br&gt;(PLAN)" style="rhombus;whiteSpace=wrap;html=1;labelBackgroundColor=none;labelBorderColor=none;fillColor=#d5e8d4;strokeColor=#82b366;" parent="1" vertex="1">
          <mxGeometry x="304" y="500" width="60" height="60" as="geometry" />
        </mxCell>
        <mxCell id="KiZJLOA3F3ZZ3r3pBosK-21" value="MAN&lt;br&gt;(PLAN)" style="rhombus;whiteSpace=wrap;html=1;labelBackgroundColor=none;labelBorderColor=none;fillColor=#d5e8d4;strokeColor=#82b366;" parent="1" vertex="1">
          <mxGeometry x="200" y="620" width="60" height="60" as="geometry" />
        </mxCell>
        <mxCell id="KiZJLOA3F3ZZ3r3pBosK-22" value="DEP&lt;br&gt;(PLAN)" style="rhombus;whiteSpace=wrap;html=1;labelBackgroundColor=none;labelBorderColor=none;fillColor=#d5e8d4;strokeColor=#82b366;" parent="1" vertex="1">
          <mxGeometry x="260" y="620" width="60" height="60" as="geometry" />
        </mxCell>
        <mxCell id="KiZJLOA3F3ZZ3r3pBosK-26" style="edgeStyle=orthogonalEdgeStyle;rounded=0;orthogonalLoop=1;jettySize=auto;html=1;entryX=0;entryY=0.5;entryDx=0;entryDy=0;startArrow=classic;startFill=1;strokeColor=#66B2FF;" parent="1" source="KiZJLOA3F3ZZ3r3pBosK-23" target="KiZJLOA3F3ZZ3r3pBosK-24" edge="1">
          <mxGeometry relative="1" as="geometry" />
        </mxCell>
        <mxCell id="KiZJLOA3F3ZZ3r3pBosK-23" value="Loading" style="whiteSpace=wrap;html=1;fontStyle=1;fillColor=#f5f5f5;strokeColor=#66B2FF;fontColor=#333333;" parent="1" vertex="1">
          <mxGeometry x="490" y="580" width="280" height="60" as="geometry" />
        </mxCell>
        <mxCell id="KiZJLOA3F3ZZ3r3pBosK-24" value="TransportMovement&lt;br&gt;LH400/16OCT2023 FRA-JFK" style="whiteSpace=wrap;html=1;fontStyle=1;fillColor=#f5f5f5;strokeColor=#66B2FF;fontColor=#333333;" parent="1" vertex="1">
          <mxGeometry x="850" y="580" width="280" height="60" as="geometry" />
        </mxCell>
        <mxCell id="KiZJLOA3F3ZZ3r3pBosK-27" style="edgeStyle=orthogonalEdgeStyle;rounded=0;orthogonalLoop=1;jettySize=auto;html=1;entryX=0;entryY=0.5;entryDx=0;entryDy=0;exitX=0.058;exitY=0.967;exitDx=0;exitDy=0;exitPerimeter=0;startArrow=classic;startFill=1;strokeColor=#66B2FF;" parent="1" source="KiZJLOA3F3ZZ3r3pBosK-28" target="KiZJLOA3F3ZZ3r3pBosK-30" edge="1">
          <mxGeometry relative="1" as="geometry" />
        </mxCell>
        <mxCell id="5CUBUq4CtGVq6OdzhweH-10" style="edgeStyle=orthogonalEdgeStyle;rounded=0;orthogonalLoop=1;jettySize=auto;html=1;entryX=0;entryY=0.5;entryDx=0;entryDy=0;exitX=0.058;exitY=1.008;exitDx=0;exitDy=0;exitPerimeter=0;strokeColor=#66B2FF;" parent="1" source="KiZJLOA3F3ZZ3r3pBosK-28" target="5CUBUq4CtGVq6OdzhweH-4" edge="1">
          <mxGeometry relative="1" as="geometry" />
        </mxCell>
        <mxCell id="KiZJLOA3F3ZZ3r3pBosK-28" value="Shipment" style="whiteSpace=wrap;html=1;fontStyle=1;fillColor=#f5f5f5;strokeColor=#66B2FF;fontColor=#333333;" parent="1" vertex="1">
          <mxGeometry x="40" y="758" width="330" height="60" as="geometry" />
        </mxCell>
        <mxCell id="KiZJLOA3F3ZZ3r3pBosK-29" style="edgeStyle=orthogonalEdgeStyle;rounded=0;orthogonalLoop=1;jettySize=auto;html=1;entryX=0;entryY=0.5;entryDx=0;entryDy=0;startArrow=classic;startFill=1;strokeColor=#66B2FF;" parent="1" source="KiZJLOA3F3ZZ3r3pBosK-30" target="KiZJLOA3F3ZZ3r3pBosK-41" edge="1">
          <mxGeometry relative="1" as="geometry" />
        </mxCell>
        <mxCell id="KiZJLOA3F3ZZ3r3pBosK-30" value="Piece #1" style="whiteSpace=wrap;html=1;fontStyle=1;fillColor=#f5f5f5;strokeColor=#66B2FF;fontColor=#333333;" parent="1" vertex="1">
          <mxGeometry x="80" y="880" width="280" height="60" as="geometry" />
        </mxCell>
        <mxCell id="KiZJLOA3F3ZZ3r3pBosK-31" value="FOH" style="rhombus;whiteSpace=wrap;html=1;labelBackgroundColor=none;labelBorderColor=none;fillColor=#d5e8d4;strokeColor=#82b366;" parent="1" vertex="1">
          <mxGeometry x="80" y="920" width="60" height="60" as="geometry" />
        </mxCell>
        <mxCell id="KiZJLOA3F3ZZ3r3pBosK-32" value="RCS" style="rhombus;whiteSpace=wrap;html=1;labelBackgroundColor=none;labelBorderColor=none;fillColor=#d5e8d4;strokeColor=#82b366;" parent="1" vertex="1">
          <mxGeometry x="140" y="920" width="60" height="60" as="geometry" />
        </mxCell>
        <mxCell id="KiZJLOA3F3ZZ3r3pBosK-33" value="BKD" style="rhombus;whiteSpace=wrap;html=1;labelBackgroundColor=none;labelBorderColor=none;fillColor=#d5e8d4;strokeColor=#82b366;" parent="1" vertex="1">
          <mxGeometry x="64" y="800" width="60" height="60" as="geometry" />
        </mxCell>
        <mxCell id="KiZJLOA3F3ZZ3r3pBosK-34" value="FOH" style="rhombus;whiteSpace=wrap;html=1;labelBackgroundColor=none;labelBorderColor=none;fillColor=#d5e8d4;strokeColor=#82b366;" parent="1" vertex="1">
          <mxGeometry x="124" y="800" width="60" height="60" as="geometry" />
        </mxCell>
        <mxCell id="KiZJLOA3F3ZZ3r3pBosK-35" value="RCS" style="rhombus;whiteSpace=wrap;html=1;labelBackgroundColor=none;labelBorderColor=none;fillColor=#d5e8d4;strokeColor=#82b366;" parent="1" vertex="1">
          <mxGeometry x="184" y="800" width="60" height="60" as="geometry" />
        </mxCell>
        <mxCell id="KiZJLOA3F3ZZ3r3pBosK-36" value="MAN" style="rhombus;whiteSpace=wrap;html=1;labelBackgroundColor=none;labelBorderColor=none;fillColor=#fff2cc;gradientDirection=east;strokeColor=#d6b656;dashed=1;" parent="1" vertex="1">
          <mxGeometry x="244" y="800" width="60" height="60" as="geometry" />
        </mxCell>
        <mxCell id="KiZJLOA3F3ZZ3r3pBosK-37" value="DEP" style="rhombus;whiteSpace=wrap;html=1;labelBackgroundColor=none;labelBorderColor=none;fillColor=#fff2cc;gradientDirection=east;strokeColor=#d6b656;dashed=1;" parent="1" vertex="1">
          <mxGeometry x="304" y="800" width="60" height="60" as="geometry" />
        </mxCell>
        <mxCell id="KiZJLOA3F3ZZ3r3pBosK-38" value="MAN" style="rhombus;whiteSpace=wrap;html=1;labelBackgroundColor=none;labelBorderColor=none;fillColor=#d5e8d4;strokeColor=#82b366;" parent="1" vertex="1">
          <mxGeometry x="200" y="920" width="60" height="60" as="geometry" />
        </mxCell>
        <mxCell id="KiZJLOA3F3ZZ3r3pBosK-39" value="DEP" style="rhombus;whiteSpace=wrap;html=1;labelBackgroundColor=none;labelBorderColor=none;fillColor=#d5e8d4;strokeColor=#82b366;" parent="1" vertex="1">
          <mxGeometry x="260" y="920" width="60" height="60" as="geometry" />
        </mxCell>
        <mxCell id="KiZJLOA3F3ZZ3r3pBosK-40" style="edgeStyle=orthogonalEdgeStyle;rounded=0;orthogonalLoop=1;jettySize=auto;html=1;entryX=0;entryY=0.5;entryDx=0;entryDy=0;startArrow=classic;startFill=1;strokeColor=#66B2FF;" parent="1" source="KiZJLOA3F3ZZ3r3pBosK-41" target="5CUBUq4CtGVq6OdzhweH-1" edge="1">
          <mxGeometry relative="1" as="geometry">
            <mxPoint x="850" y="910" as="targetPoint" />
          </mxGeometry>
        </mxCell>
        <mxCell id="KiZJLOA3F3ZZ3r3pBosK-41" value="Loading" style="whiteSpace=wrap;html=1;fontStyle=1;fillColor=#f5f5f5;strokeColor=#66B2FF;fontColor=#333333;" parent="1" vertex="1">
          <mxGeometry x="490" y="880" width="280" height="60" as="geometry" />
        </mxCell>
        <mxCell id="5CUBUq4CtGVq6OdzhweH-1" value="TransportMovement&lt;br&gt;LH400/16OCT2023 FRA-JFK" style="whiteSpace=wrap;html=1;fontStyle=1;fillColor=#f5f5f5;strokeColor=#66B2FF;fontColor=#333333;" parent="1" vertex="1">
          <mxGeometry x="850" y="880" width="280" height="60" as="geometry" />
        </mxCell>
        <mxCell id="5CUBUq4CtGVq6OdzhweH-4" value="Piece #2" style="whiteSpace=wrap;html=1;fontStyle=1;fillColor=#f5f5f5;strokeColor=#66B2FF;fontColor=#333333;" parent="1" vertex="1">
          <mxGeometry x="80" y="1012" width="280" height="60" as="geometry" />
        </mxCell>
        <mxCell id="5CUBUq4CtGVq6OdzhweH-5" value="FOH" style="rhombus;whiteSpace=wrap;html=1;labelBackgroundColor=none;labelBorderColor=none;fillColor=#d5e8d4;strokeColor=#82b366;" parent="1" vertex="1">
          <mxGeometry x="80" y="1052" width="60" height="60" as="geometry" />
        </mxCell>
        <mxCell id="5CUBUq4CtGVq6OdzhweH-6" value="RCS" style="rhombus;whiteSpace=wrap;html=1;labelBackgroundColor=none;labelBorderColor=none;fillColor=#d5e8d4;strokeColor=#82b366;" parent="1" vertex="1">
          <mxGeometry x="140" y="1052" width="60" height="60" as="geometry" />
        </mxCell>
        <mxCell id="5CUBUq4CtGVq6OdzhweH-12" style="edgeStyle=orthogonalEdgeStyle;rounded=0;orthogonalLoop=1;jettySize=auto;html=1;entryX=0;entryY=0.5;entryDx=0;entryDy=0;exitX=0.027;exitY=0.987;exitDx=0;exitDy=0;exitPerimeter=0;startArrow=classic;startFill=1;strokeColor=#66B2FF;" parent="1" source="5CUBUq4CtGVq6OdzhweH-14" target="5CUBUq4CtGVq6OdzhweH-16" edge="1">
          <mxGeometry relative="1" as="geometry">
            <Array as="points">
              <mxPoint x="60" y="1430" />
            </Array>
          </mxGeometry>
        </mxCell>
        <mxCell id="5CUBUq4CtGVq6OdzhweH-13" style="edgeStyle=orthogonalEdgeStyle;rounded=0;orthogonalLoop=1;jettySize=auto;html=1;entryX=0;entryY=0.5;entryDx=0;entryDy=0;exitX=0.028;exitY=0.987;exitDx=0;exitDy=0;exitPerimeter=0;strokeColor=#66B2FF;" parent="1" source="5CUBUq4CtGVq6OdzhweH-14" target="5CUBUq4CtGVq6OdzhweH-29" edge="1">
          <mxGeometry relative="1" as="geometry">
            <Array as="points">
              <mxPoint x="60" y="1492" />
              <mxPoint x="60" y="1682" />
            </Array>
          </mxGeometry>
        </mxCell>
        <mxCell id="5CUBUq4CtGVq6OdzhweH-14" value="Shipment" style="whiteSpace=wrap;html=1;fontStyle=1;fillColor=#f5f5f5;strokeColor=#66B2FF;fontColor=#333333;" parent="1" vertex="1">
          <mxGeometry x="47" y="1170" width="480" height="57" as="geometry" />
        </mxCell>
        <mxCell id="5CUBUq4CtGVq6OdzhweH-15" style="edgeStyle=orthogonalEdgeStyle;rounded=0;orthogonalLoop=1;jettySize=auto;html=1;entryX=0;entryY=0.5;entryDx=0;entryDy=0;startArrow=classic;startFill=1;strokeColor=#66B2FF;" parent="1" source="5CUBUq4CtGVq6OdzhweH-16" target="5CUBUq4CtGVq6OdzhweH-27" edge="1">
          <mxGeometry relative="1" as="geometry" />
        </mxCell>
        <mxCell id="5CUBUq4CtGVq6OdzhweH-16" value="Piece #1" style="whiteSpace=wrap;html=1;fontStyle=1;fillColor=#f5f5f5;strokeColor=#66B2FF;fontColor=#333333;" parent="1" vertex="1">
          <mxGeometry x="90" y="1400" width="280" height="60" as="geometry" />
        </mxCell>
        <mxCell id="5CUBUq4CtGVq6OdzhweH-17" value="FOH" style="rhombus;whiteSpace=wrap;html=1;labelBackgroundColor=none;labelBorderColor=none;fillColor=#d5e8d4;strokeColor=#82b366;" parent="1" vertex="1">
          <mxGeometry x="90" y="1440" width="60" height="60" as="geometry" />
        </mxCell>
        <mxCell id="5CUBUq4CtGVq6OdzhweH-18" value="RCS" style="rhombus;whiteSpace=wrap;html=1;labelBackgroundColor=none;labelBorderColor=none;fillColor=#d5e8d4;strokeColor=#82b366;" parent="1" vertex="1">
          <mxGeometry x="150" y="1440" width="60" height="60" as="geometry" />
        </mxCell>
        <mxCell id="5CUBUq4CtGVq6OdzhweH-19" value="BKD" style="rhombus;whiteSpace=wrap;html=1;labelBackgroundColor=none;labelBorderColor=none;fillColor=#d5e8d4;strokeColor=#82b366;" parent="1" vertex="1">
          <mxGeometry x="74" y="1210" width="60" height="60" as="geometry" />
        </mxCell>
        <mxCell id="5CUBUq4CtGVq6OdzhweH-20" value="FOH" style="rhombus;whiteSpace=wrap;html=1;labelBackgroundColor=none;labelBorderColor=none;fillColor=#d5e8d4;strokeColor=#82b366;" parent="1" vertex="1">
          <mxGeometry x="134" y="1210" width="60" height="60" as="geometry" />
        </mxCell>
        <mxCell id="5CUBUq4CtGVq6OdzhweH-21" value="RCS" style="rhombus;whiteSpace=wrap;html=1;labelBackgroundColor=none;labelBorderColor=none;fillColor=#d5e8d4;strokeColor=#82b366;" parent="1" vertex="1">
          <mxGeometry x="194" y="1210" width="60" height="60" as="geometry" />
        </mxCell>
        <mxCell id="5CUBUq4CtGVq6OdzhweH-22" value="MAN #1" style="rhombus;whiteSpace=wrap;html=1;labelBackgroundColor=none;labelBorderColor=none;fillColor=#fff2cc;strokeColor=#d6b656;dashed=1;" parent="1" vertex="1">
          <mxGeometry x="254" y="1270" width="60" height="60" as="geometry" />
        </mxCell>
        <mxCell id="5CUBUq4CtGVq6OdzhweH-23" value="DEP #1" style="rhombus;whiteSpace=wrap;html=1;labelBackgroundColor=none;labelBorderColor=none;fillColor=#fff2cc;gradientDirection=east;strokeColor=#d6b656;dashed=1;" parent="1" vertex="1">
          <mxGeometry x="314" y="1270" width="60" height="60" as="geometry" />
        </mxCell>
        <mxCell id="5CUBUq4CtGVq6OdzhweH-24" value="MAN #1" style="rhombus;whiteSpace=wrap;html=1;labelBackgroundColor=none;labelBorderColor=none;fillColor=#d5e8d4;strokeColor=#82b366;" parent="1" vertex="1">
          <mxGeometry x="210" y="1440" width="60" height="60" as="geometry" />
        </mxCell>
        <mxCell id="5CUBUq4CtGVq6OdzhweH-25" value="DEP #1" style="rhombus;whiteSpace=wrap;html=1;labelBackgroundColor=none;labelBorderColor=none;fillColor=#d5e8d4;strokeColor=#82b366;" parent="1" vertex="1">
          <mxGeometry x="270" y="1440" width="60" height="60" as="geometry" />
        </mxCell>
        <mxCell id="5CUBUq4CtGVq6OdzhweH-26" style="edgeStyle=orthogonalEdgeStyle;rounded=0;orthogonalLoop=1;jettySize=auto;html=1;entryX=0;entryY=0.5;entryDx=0;entryDy=0;startArrow=classic;startFill=1;strokeColor=#66B2FF;" parent="1" source="5CUBUq4CtGVq6OdzhweH-27" target="5CUBUq4CtGVq6OdzhweH-28" edge="1">
          <mxGeometry relative="1" as="geometry">
            <mxPoint x="860" y="1430" as="targetPoint" />
          </mxGeometry>
        </mxCell>
        <mxCell id="5CUBUq4CtGVq6OdzhweH-27" value="Loading" style="whiteSpace=wrap;html=1;fontStyle=1;fillColor=#f5f5f5;strokeColor=#66B2FF;fontColor=#333333;" parent="1" vertex="1">
          <mxGeometry x="500" y="1400" width="280" height="60" as="geometry" />
        </mxCell>
        <mxCell id="5CUBUq4CtGVq6OdzhweH-35" style="edgeStyle=orthogonalEdgeStyle;rounded=0;orthogonalLoop=1;jettySize=auto;html=1;startArrow=classic;startFill=1;strokeColor=#66B2FF;" parent="1" source="5CUBUq4CtGVq6OdzhweH-29" target="5CUBUq4CtGVq6OdzhweH-33" edge="1">
          <mxGeometry relative="1" as="geometry" />
        </mxCell>
        <mxCell id="5CUBUq4CtGVq6OdzhweH-29" value="Piece #2" style="whiteSpace=wrap;html=1;fontStyle=1;fillColor=#f5f5f5;strokeColor=#66B2FF;fontColor=#333333;" parent="1" vertex="1">
          <mxGeometry x="90" y="1532" width="280" height="60" as="geometry" />
        </mxCell>
        <mxCell id="5CUBUq4CtGVq6OdzhweH-30" value="FOH" style="rhombus;whiteSpace=wrap;html=1;labelBackgroundColor=none;labelBorderColor=none;fillColor=#d5e8d4;strokeColor=#82b366;" parent="1" vertex="1">
          <mxGeometry x="90" y="1572" width="60" height="60" as="geometry" />
        </mxCell>
        <mxCell id="5CUBUq4CtGVq6OdzhweH-31" value="RCS" style="rhombus;whiteSpace=wrap;html=1;labelBackgroundColor=none;labelBorderColor=none;fillColor=#d5e8d4;strokeColor=#82b366;" parent="1" vertex="1">
          <mxGeometry x="150" y="1572" width="60" height="60" as="geometry" />
        </mxCell>
        <mxCell id="5CUBUq4CtGVq6OdzhweH-32" style="edgeStyle=orthogonalEdgeStyle;rounded=0;orthogonalLoop=1;jettySize=auto;html=1;entryX=0;entryY=0.5;entryDx=0;entryDy=0;startArrow=classic;startFill=1;strokeColor=#66B2FF;" parent="1" source="5CUBUq4CtGVq6OdzhweH-33" target="5CUBUq4CtGVq6OdzhweH-34" edge="1">
          <mxGeometry relative="1" as="geometry">
            <mxPoint x="860" y="1562" as="targetPoint" />
          </mxGeometry>
        </mxCell>
        <mxCell id="5CUBUq4CtGVq6OdzhweH-33" value="Loading" style="whiteSpace=wrap;html=1;fontStyle=1;fillColor=#f5f5f5;strokeColor=#66B2FF;fontColor=#333333;" parent="1" vertex="1">
          <mxGeometry x="500" y="1532" width="280" height="60" as="geometry" />
        </mxCell>
        <mxCell id="5CUBUq4CtGVq6OdzhweH-34" value="TransportMovement&lt;br&gt;LH404/17OCT2023 FRA-JFK" style="whiteSpace=wrap;html=1;fontStyle=1;fillColor=#f5f5f5;strokeColor=#66B2FF;fontColor=#333333;" parent="1" vertex="1">
          <mxGeometry x="860" y="1532" width="280" height="60" as="geometry" />
        </mxCell>
        <mxCell id="5CUBUq4CtGVq6OdzhweH-36" value="MAN #2" style="rhombus;whiteSpace=wrap;html=1;labelBackgroundColor=none;labelBorderColor=none;fillColor=#d5e8d4;strokeColor=#82b366;" parent="1" vertex="1">
          <mxGeometry x="210" y="1572" width="60" height="60" as="geometry" />
        </mxCell>
        <mxCell id="5CUBUq4CtGVq6OdzhweH-165" style="edgeStyle=orthogonalEdgeStyle;rounded=0;orthogonalLoop=1;jettySize=auto;html=1;entryX=0;entryY=0.5;entryDx=0;entryDy=0;exitX=0.028;exitY=1.047;exitDx=0;exitDy=0;exitPerimeter=0;strokeColor=#66B2FF;startArrow=classic;startFill=1;" parent="1" source="5CUBUq4CtGVq6OdzhweH-39" target="5CUBUq4CtGVq6OdzhweH-41" edge="1">
          <mxGeometry relative="1" as="geometry">
            <Array as="points">
              <mxPoint x="28" y="2332" />
            </Array>
          </mxGeometry>
        </mxCell>
        <mxCell id="5CUBUq4CtGVq6OdzhweH-39" value="Shipment" style="whiteSpace=wrap;html=1;fontStyle=1;fillColor=#f5f5f5;strokeColor=#66B2FF;fontColor=#333333;" parent="1" vertex="1">
          <mxGeometry x="10" y="2060" width="630" height="60" as="geometry" />
        </mxCell>
        <mxCell id="5CUBUq4CtGVq6OdzhweH-40" style="edgeStyle=orthogonalEdgeStyle;rounded=0;orthogonalLoop=1;jettySize=auto;html=1;entryX=0;entryY=0.5;entryDx=0;entryDy=0;startArrow=classic;startFill=1;strokeColor=#66B2FF;" parent="1" source="5CUBUq4CtGVq6OdzhweH-41" target="5CUBUq4CtGVq6OdzhweH-52" edge="1">
          <mxGeometry relative="1" as="geometry" />
        </mxCell>
        <mxCell id="5CUBUq4CtGVq6OdzhweH-42" value="FOH" style="rhombus;whiteSpace=wrap;html=1;labelBackgroundColor=none;labelBorderColor=none;fillColor=#d5e8d4;strokeColor=#82b366;" parent="1" vertex="1">
          <mxGeometry x="80" y="2342" width="60" height="60" as="geometry" />
        </mxCell>
        <mxCell id="5CUBUq4CtGVq6OdzhweH-43" value="RCS" style="rhombus;whiteSpace=wrap;html=1;labelBackgroundColor=none;labelBorderColor=none;fillColor=#d5e8d4;strokeColor=#82b366;" parent="1" vertex="1">
          <mxGeometry x="140" y="2342" width="60" height="60" as="geometry" />
        </mxCell>
        <mxCell id="5CUBUq4CtGVq6OdzhweH-44" value="BKD" style="rhombus;whiteSpace=wrap;html=1;labelBackgroundColor=none;labelBorderColor=none;fillColor=#d5e8d4;strokeColor=#82b366;" parent="1" vertex="1">
          <mxGeometry x="64" y="2102" width="60" height="60" as="geometry" />
        </mxCell>
        <mxCell id="5CUBUq4CtGVq6OdzhweH-45" value="FOH" style="rhombus;whiteSpace=wrap;html=1;labelBackgroundColor=none;labelBorderColor=none;fillColor=#d5e8d4;strokeColor=#82b366;" parent="1" vertex="1">
          <mxGeometry x="124" y="2102" width="60" height="60" as="geometry" />
        </mxCell>
        <mxCell id="5CUBUq4CtGVq6OdzhweH-46" value="RCS" style="rhombus;whiteSpace=wrap;html=1;labelBackgroundColor=none;labelBorderColor=none;fillColor=#d5e8d4;strokeColor=#82b366;" parent="1" vertex="1">
          <mxGeometry x="184" y="2102" width="60" height="60" as="geometry" />
        </mxCell>
        <mxCell id="5CUBUq4CtGVq6OdzhweH-47" value="MAN #1" style="rhombus;whiteSpace=wrap;html=1;labelBackgroundColor=none;labelBorderColor=none;fillColor=#fff2cc;gradientDirection=east;strokeColor=#d6b656;dashed=1;" parent="1" vertex="1">
          <mxGeometry x="244" y="2160" width="60" height="60" as="geometry" />
        </mxCell>
        <mxCell id="5CUBUq4CtGVq6OdzhweH-48" value="DEP #1" style="rhombus;whiteSpace=wrap;html=1;labelBackgroundColor=none;labelBorderColor=none;fillColor=#fff2cc;gradientDirection=east;strokeColor=#d6b656;dashed=1;" parent="1" vertex="1">
          <mxGeometry x="305" y="2160" width="60" height="60" as="geometry" />
        </mxCell>
        <mxCell id="5CUBUq4CtGVq6OdzhweH-49" value="MAN #1" style="rhombus;whiteSpace=wrap;html=1;labelBackgroundColor=none;labelBorderColor=none;fillColor=#d5e8d4;strokeColor=#82b366;" parent="1" vertex="1">
          <mxGeometry x="200" y="2342" width="60" height="60" as="geometry" />
        </mxCell>
        <mxCell id="5CUBUq4CtGVq6OdzhweH-50" value="DEP #1" style="rhombus;whiteSpace=wrap;html=1;labelBackgroundColor=none;labelBorderColor=none;fillColor=#d5e8d4;strokeColor=#82b366;" parent="1" vertex="1">
          <mxGeometry x="260" y="2342" width="60" height="60" as="geometry" />
        </mxCell>
        <mxCell id="5CUBUq4CtGVq6OdzhweH-51" style="edgeStyle=orthogonalEdgeStyle;rounded=0;orthogonalLoop=1;jettySize=auto;html=1;entryX=0;entryY=0.5;entryDx=0;entryDy=0;startArrow=classic;startFill=1;strokeColor=#66B2FF;" parent="1" source="5CUBUq4CtGVq6OdzhweH-52" target="5CUBUq4CtGVq6OdzhweH-53" edge="1">
          <mxGeometry relative="1" as="geometry">
            <mxPoint x="850" y="2332" as="targetPoint" />
          </mxGeometry>
        </mxCell>
        <mxCell id="5CUBUq4CtGVq6OdzhweH-52" value="Loading" style="whiteSpace=wrap;html=1;fontStyle=1;fillColor=#f5f5f5;strokeColor=#66B2FF;fontColor=#333333;" parent="1" vertex="1">
          <mxGeometry x="490" y="2302" width="280" height="60" as="geometry" />
        </mxCell>
        <mxCell id="5CUBUq4CtGVq6OdzhweH-53" value="TransportMovement&lt;br&gt;LH100/16OCT2023 FRA-MUC" style="whiteSpace=wrap;html=1;fontStyle=1;fillColor=#f5f5f5;strokeColor=#66B2FF;fontColor=#333333;" parent="1" vertex="1">
          <mxGeometry x="850" y="2302" width="280" height="60" as="geometry" />
        </mxCell>
        <mxCell id="5CUBUq4CtGVq6OdzhweH-57" value="Split Shipment with two pieces" style="text;html=1;strokeColor=none;fillColor=none;align=right;verticalAlign=middle;whiteSpace=wrap;rounded=0;fontSize=21;fontStyle=1" parent="1" vertex="1">
          <mxGeometry x="-640" y="1190" width="550" height="30" as="geometry" />
        </mxCell>
        <mxCell id="5CUBUq4CtGVq6OdzhweH-58" value="Shipment with two pieces different status" style="text;html=1;strokeColor=none;fillColor=none;align=right;verticalAlign=middle;whiteSpace=wrap;rounded=0;fontSize=21;fontStyle=1" parent="1" vertex="1">
          <mxGeometry x="-620" y="773" width="550" height="30" as="geometry" />
        </mxCell>
        <mxCell id="5CUBUq4CtGVq6OdzhweH-59" value="Shipment with one piece (only planned events)" style="text;html=1;strokeColor=none;fillColor=none;align=right;verticalAlign=middle;whiteSpace=wrap;rounded=0;fontSize=21;fontStyle=1" parent="1" vertex="1">
          <mxGeometry x="-640" y="-98" width="550" height="30" as="geometry" />
        </mxCell>
        <mxCell id="5CUBUq4CtGVq6OdzhweH-60" value="Shipment with one piece with flight specific status" style="text;html=1;strokeColor=none;fillColor=none;align=right;verticalAlign=middle;whiteSpace=wrap;rounded=0;fontSize=21;fontStyle=1" parent="1" vertex="1">
          <mxGeometry x="-630" y="473" width="550" height="30" as="geometry" />
        </mxCell>
        <mxCell id="5CUBUq4CtGVq6OdzhweH-61" value="Transit Shipment with one piece" style="text;html=1;strokeColor=none;fillColor=none;align=right;verticalAlign=middle;whiteSpace=wrap;rounded=0;fontSize=21;fontStyle=1" parent="1" vertex="1">
          <mxGeometry x="-650" y="2075" width="550" height="30" as="geometry" />
        </mxCell>
        <mxCell id="5CUBUq4CtGVq6OdzhweH-68" style="edgeStyle=orthogonalEdgeStyle;rounded=0;orthogonalLoop=1;jettySize=auto;html=1;entryX=0;entryY=0.5;entryDx=0;entryDy=0;startArrow=classic;startFill=1;strokeColor=#66B2FF;" parent="1" source="5CUBUq4CtGVq6OdzhweH-62" target="5CUBUq4CtGVq6OdzhweH-67" edge="1">
          <mxGeometry relative="1" as="geometry" />
        </mxCell>
        <mxCell id="5CUBUq4CtGVq6OdzhweH-62" value="Loading" style="whiteSpace=wrap;html=1;fontStyle=1;fillColor=#f5f5f5;strokeColor=#66B2FF;fontColor=#333333;" parent="1" vertex="1">
          <mxGeometry x="490" y="2434" width="280" height="60" as="geometry" />
        </mxCell>
        <mxCell id="5CUBUq4CtGVq6OdzhweH-63" style="edgeStyle=orthogonalEdgeStyle;rounded=0;orthogonalLoop=1;jettySize=auto;html=1;entryX=0;entryY=0.5;entryDx=0;entryDy=0;startArrow=classic;startFill=1;exitX=1;exitY=0.5;exitDx=0;exitDy=0;strokeColor=#66B2FF;" parent="1" source="5CUBUq4CtGVq6OdzhweH-41" target="5CUBUq4CtGVq6OdzhweH-62" edge="1">
          <mxGeometry relative="1" as="geometry">
            <mxPoint x="370" y="2342" as="sourcePoint" />
            <mxPoint x="500" y="2342" as="targetPoint" />
          </mxGeometry>
        </mxCell>
        <mxCell id="5CUBUq4CtGVq6OdzhweH-64" value="ARR #1" style="rhombus;whiteSpace=wrap;html=1;labelBackgroundColor=none;labelBorderColor=none;fillColor=#d5e8d4;strokeColor=#82b366;" parent="1" vertex="1">
          <mxGeometry x="320" y="2342" width="60" height="60" as="geometry" />
        </mxCell>
        <mxCell id="5CUBUq4CtGVq6OdzhweH-65" value="MAN #2" style="rhombus;whiteSpace=wrap;html=1;labelBackgroundColor=none;labelBorderColor=none;fillColor=#d5e8d4;strokeColor=#82b366;" parent="1" vertex="1">
          <mxGeometry x="200" y="2402" width="60" height="60" as="geometry" />
        </mxCell>
        <mxCell id="5CUBUq4CtGVq6OdzhweH-67" value="TransportMovement&lt;br&gt;LH424/17OCT2023 MUC-BOS" style="whiteSpace=wrap;html=1;fontStyle=1;fillColor=#f5f5f5;strokeColor=#66B2FF;fontColor=#333333;" parent="1" vertex="1">
          <mxGeometry x="850" y="2434" width="280" height="60" as="geometry" />
        </mxCell>
        <mxCell id="5CUBUq4CtGVq6OdzhweH-69" value="MAN #1" style="rhombus;whiteSpace=wrap;html=1;labelBackgroundColor=none;labelBorderColor=none;fillColor=#d5e8d4;strokeColor=#82b366;" parent="1" vertex="1">
          <mxGeometry x="850" y="1442" width="60" height="60" as="geometry" />
        </mxCell>
        <mxCell id="5CUBUq4CtGVq6OdzhweH-70" value="DEP #1" style="rhombus;whiteSpace=wrap;html=1;labelBackgroundColor=none;labelBorderColor=none;fillColor=#d5e8d4;strokeColor=#82b366;" parent="1" vertex="1">
          <mxGeometry x="910" y="1442" width="60" height="60" as="geometry" />
        </mxCell>
        <mxCell id="5CUBUq4CtGVq6OdzhweH-71" value="MAN #2" style="rhombus;whiteSpace=wrap;html=1;labelBackgroundColor=none;labelBorderColor=none;fillColor=#d5e8d4;strokeColor=#82b366;" parent="1" vertex="1">
          <mxGeometry x="850" y="1572" width="60" height="60" as="geometry" />
        </mxCell>
        <mxCell id="5CUBUq4CtGVq6OdzhweH-72" value="MAN #1" style="rhombus;whiteSpace=wrap;html=1;labelBackgroundColor=none;labelBorderColor=none;fillColor=#d5e8d4;strokeColor=#82b366;" parent="1" vertex="1">
          <mxGeometry x="840" y="2350" width="60" height="60" as="geometry" />
        </mxCell>
        <mxCell id="5CUBUq4CtGVq6OdzhweH-73" value="DEP #1" style="rhombus;whiteSpace=wrap;html=1;labelBackgroundColor=none;labelBorderColor=none;fillColor=#d5e8d4;strokeColor=#82b366;" parent="1" vertex="1">
          <mxGeometry x="900" y="2350" width="60" height="60" as="geometry" />
        </mxCell>
        <mxCell id="5CUBUq4CtGVq6OdzhweH-74" value="ARR #1" style="rhombus;whiteSpace=wrap;html=1;labelBackgroundColor=none;labelBorderColor=none;fillColor=#d5e8d4;strokeColor=#82b366;" parent="1" vertex="1">
          <mxGeometry x="960" y="2350" width="60" height="60" as="geometry" />
        </mxCell>
        <mxCell id="5CUBUq4CtGVq6OdzhweH-75" value="MAN #2" style="rhombus;whiteSpace=wrap;html=1;labelBackgroundColor=none;labelBorderColor=none;fillColor=#d5e8d4;strokeColor=#82b366;" parent="1" vertex="1">
          <mxGeometry x="840" y="2480" width="60" height="60" as="geometry" />
        </mxCell>
        <mxCell id="5CUBUq4CtGVq6OdzhweH-77" value="MAN" style="rhombus;whiteSpace=wrap;html=1;labelBackgroundColor=none;labelBorderColor=none;fillColor=#d5e8d4;strokeColor=#82b366;" parent="1" vertex="1">
          <mxGeometry x="850" y="930" width="60" height="60" as="geometry" />
        </mxCell>
        <mxCell id="5CUBUq4CtGVq6OdzhweH-78" value="DEP" style="rhombus;whiteSpace=wrap;html=1;labelBackgroundColor=none;labelBorderColor=none;fillColor=#d5e8d4;strokeColor=#82b366;" parent="1" vertex="1">
          <mxGeometry x="910" y="930" width="60" height="60" as="geometry" />
        </mxCell>
        <mxCell id="5CUBUq4CtGVq6OdzhweH-79" value="MAN&lt;br&gt;(PLAN)" style="rhombus;whiteSpace=wrap;html=1;labelBackgroundColor=none;labelBorderColor=none;fillColor=#d5e8d4;strokeColor=#82b366;" parent="1" vertex="1">
          <mxGeometry x="850" y="630" width="60" height="60" as="geometry" />
        </mxCell>
        <mxCell id="5CUBUq4CtGVq6OdzhweH-80" value="DEP&lt;br&gt;(PLAN)" style="rhombus;whiteSpace=wrap;html=1;labelBackgroundColor=none;labelBorderColor=none;fillColor=#d5e8d4;strokeColor=#82b366;" parent="1" vertex="1">
          <mxGeometry x="910" y="630" width="60" height="60" as="geometry" />
        </mxCell>
        <mxCell id="5CUBUq4CtGVq6OdzhweH-81" value="ARR #1" style="rhombus;whiteSpace=wrap;html=1;labelBackgroundColor=none;labelBorderColor=none;fillColor=#fff2cc;strokeColor=#d6b656;dashed=1;" parent="1" vertex="1">
          <mxGeometry x="364" y="2160" width="60" height="60" as="geometry" />
        </mxCell>
        <mxCell id="5CUBUq4CtGVq6OdzhweH-82" value="MAN #2" style="rhombus;whiteSpace=wrap;html=1;labelBackgroundColor=none;labelBorderColor=none;fillColor=#fff2cc;strokeColor=#d6b656;dashed=1;" parent="1" vertex="1">
          <mxGeometry x="244" y="2220" width="60" height="60" as="geometry" />
        </mxCell>
        <mxCell id="5CUBUq4CtGVq6OdzhweH-109" value="MAN #2" style="rhombus;whiteSpace=wrap;html=1;labelBackgroundColor=none;labelBorderColor=none;fillColor=#fff2cc;strokeColor=#d6b656;dashed=1;" parent="1" vertex="1">
          <mxGeometry x="254" y="1330" width="60" height="60" as="geometry" />
        </mxCell>
        <mxCell id="5CUBUq4CtGVq6OdzhweH-110" value="MAN" style="rhombus;whiteSpace=wrap;html=1;labelBackgroundColor=none;labelBorderColor=none;fillColor=#d5e8d4;gradientDirection=east;strokeColor=#82b366;" parent="1" vertex="1">
          <mxGeometry x="254" y="1210" width="60" height="60" as="geometry" />
        </mxCell>
        <mxCell id="5CUBUq4CtGVq6OdzhweH-112" value="" style="whiteSpace=wrap;html=1;fontStyle=1;fillColor=none;strokeColor=none;fontColor=none;noLabel=1;" parent="1" vertex="1">
          <mxGeometry x="850" y="-800" width="280" height="60" as="geometry" />
        </mxCell>
        <mxCell id="5CUBUq4CtGVq6OdzhweH-149" style="edgeStyle=orthogonalEdgeStyle;rounded=0;orthogonalLoop=1;jettySize=auto;html=1;entryX=0;entryY=0.5;entryDx=0;entryDy=0;exitX=0.03;exitY=1.027;exitDx=0;exitDy=0;exitPerimeter=0;startArrow=classic;startFill=1;strokeColor=#66B2FF;" parent="1" source="5CUBUq4CtGVq6OdzhweH-114" target="5CUBUq4CtGVq6OdzhweH-116" edge="1">
          <mxGeometry relative="1" as="geometry">
            <Array as="points">
              <mxPoint x="39" y="2990" />
            </Array>
          </mxGeometry>
        </mxCell>
        <mxCell id="5CUBUq4CtGVq6OdzhweH-150" style="edgeStyle=orthogonalEdgeStyle;rounded=0;orthogonalLoop=1;jettySize=auto;html=1;entryX=0;entryY=0.5;entryDx=0;entryDy=0;startArrow=classic;startFill=1;strokeColor=#66B2FF;" parent="1" source="5CUBUq4CtGVq6OdzhweH-114" target="5CUBUq4CtGVq6OdzhweH-145" edge="1">
          <mxGeometry relative="1" as="geometry">
            <Array as="points">
              <mxPoint x="40" y="3300" />
            </Array>
          </mxGeometry>
        </mxCell>
        <mxCell id="5CUBUq4CtGVq6OdzhweH-114" value="Shipment" style="whiteSpace=wrap;html=1;fontStyle=1;fillColor=#f5f5f5;strokeColor=#66B2FF;fontColor=#333333;" parent="1" vertex="1">
          <mxGeometry x="20" y="2600" width="630" height="60" as="geometry" />
        </mxCell>
        <mxCell id="5CUBUq4CtGVq6OdzhweH-115" style="edgeStyle=orthogonalEdgeStyle;rounded=0;orthogonalLoop=1;jettySize=auto;html=1;entryX=0;entryY=0.5;entryDx=0;entryDy=0;startArrow=classic;startFill=1;strokeColor=#66B2FF;" parent="1" source="5CUBUq4CtGVq6OdzhweH-116" target="5CUBUq4CtGVq6OdzhweH-127" edge="1">
          <mxGeometry relative="1" as="geometry" />
        </mxCell>
        <mxCell id="5CUBUq4CtGVq6OdzhweH-116" value="Piece #1" style="whiteSpace=wrap;html=1;fontStyle=1;fillColor=#f5f5f5;strokeColor=#66B2FF;fontColor=#333333;" parent="1" vertex="1">
          <mxGeometry x="90" y="2960" width="280" height="60" as="geometry" />
        </mxCell>
        <mxCell id="5CUBUq4CtGVq6OdzhweH-117" value="FOH" style="rhombus;whiteSpace=wrap;html=1;labelBackgroundColor=none;labelBorderColor=none;fillColor=#d5e8d4;strokeColor=#82b366;" parent="1" vertex="1">
          <mxGeometry x="90" y="3000" width="60" height="60" as="geometry" />
        </mxCell>
        <mxCell id="5CUBUq4CtGVq6OdzhweH-118" value="RCS" style="rhombus;whiteSpace=wrap;html=1;labelBackgroundColor=none;labelBorderColor=none;fillColor=#d5e8d4;strokeColor=#82b366;" parent="1" vertex="1">
          <mxGeometry x="150" y="3000" width="60" height="60" as="geometry" />
        </mxCell>
        <mxCell id="5CUBUq4CtGVq6OdzhweH-119" value="BKD" style="rhombus;whiteSpace=wrap;html=1;labelBackgroundColor=none;labelBorderColor=none;fillColor=#d5e8d4;strokeColor=#82b366;" parent="1" vertex="1">
          <mxGeometry x="74" y="2642" width="60" height="60" as="geometry" />
        </mxCell>
        <mxCell id="5CUBUq4CtGVq6OdzhweH-120" value="FOH" style="rhombus;whiteSpace=wrap;html=1;labelBackgroundColor=none;labelBorderColor=none;fillColor=#d5e8d4;strokeColor=#82b366;" parent="1" vertex="1">
          <mxGeometry x="134" y="2642" width="60" height="60" as="geometry" />
        </mxCell>
        <mxCell id="5CUBUq4CtGVq6OdzhweH-121" value="RCS" style="rhombus;whiteSpace=wrap;html=1;labelBackgroundColor=none;labelBorderColor=none;fillColor=#d5e8d4;strokeColor=#82b366;" parent="1" vertex="1">
          <mxGeometry x="194" y="2642" width="60" height="60" as="geometry" />
        </mxCell>
        <mxCell id="5CUBUq4CtGVq6OdzhweH-122" value="MAN" style="rhombus;whiteSpace=wrap;html=1;labelBackgroundColor=none;labelBorderColor=none;fillColor=#d5e8d4;gradientDirection=east;strokeColor=#82b366;" parent="1" vertex="1">
          <mxGeometry x="254" y="2642" width="60" height="60" as="geometry" />
        </mxCell>
        <mxCell id="5CUBUq4CtGVq6OdzhweH-123" value="DEP" style="rhombus;whiteSpace=wrap;html=1;labelBackgroundColor=none;labelBorderColor=none;fillColor=#d5e8d4;gradientDirection=east;strokeColor=#82b366;" parent="1" vertex="1">
          <mxGeometry x="314" y="2642" width="60" height="60" as="geometry" />
        </mxCell>
        <mxCell id="5CUBUq4CtGVq6OdzhweH-124" value="MAN #1" style="rhombus;whiteSpace=wrap;html=1;labelBackgroundColor=none;labelBorderColor=none;fillColor=#d5e8d4;strokeColor=#82b366;" parent="1" vertex="1">
          <mxGeometry x="210" y="3000" width="60" height="60" as="geometry" />
        </mxCell>
        <mxCell id="5CUBUq4CtGVq6OdzhweH-125" value="DEP #1" style="rhombus;whiteSpace=wrap;html=1;labelBackgroundColor=none;labelBorderColor=none;fillColor=#d5e8d4;strokeColor=#82b366;" parent="1" vertex="1">
          <mxGeometry x="270" y="3000" width="60" height="60" as="geometry" />
        </mxCell>
        <mxCell id="5CUBUq4CtGVq6OdzhweH-126" style="edgeStyle=orthogonalEdgeStyle;rounded=0;orthogonalLoop=1;jettySize=auto;html=1;entryX=0;entryY=0.5;entryDx=0;entryDy=0;startArrow=classic;startFill=1;strokeColor=#66B2FF;" parent="1" source="5CUBUq4CtGVq6OdzhweH-127" target="5CUBUq4CtGVq6OdzhweH-128" edge="1">
          <mxGeometry relative="1" as="geometry">
            <mxPoint x="860" y="2990" as="targetPoint" />
          </mxGeometry>
        </mxCell>
        <mxCell id="5CUBUq4CtGVq6OdzhweH-127" value="Loading" style="whiteSpace=wrap;html=1;fontStyle=1;fillColor=#f5f5f5;strokeColor=#66B2FF;fontColor=#333333;" parent="1" vertex="1">
          <mxGeometry x="500" y="2960" width="280" height="60" as="geometry" />
        </mxCell>
        <mxCell id="5CUBUq4CtGVq6OdzhweH-128" value="TransportMovement&lt;br&gt;LH100/16OCT2023 FRA-MUC" style="whiteSpace=wrap;html=1;fontStyle=1;fillColor=#f5f5f5;strokeColor=#66B2FF;fontColor=#333333;" parent="1" vertex="1">
          <mxGeometry x="860" y="2960" width="280" height="60" as="geometry" />
        </mxCell>
        <mxCell id="5CUBUq4CtGVq6OdzhweH-129" style="edgeStyle=orthogonalEdgeStyle;rounded=0;orthogonalLoop=1;jettySize=auto;html=1;entryX=0;entryY=0.5;entryDx=0;entryDy=0;startArrow=classic;startFill=1;strokeColor=#66B2FF;" parent="1" source="5CUBUq4CtGVq6OdzhweH-130" target="5CUBUq4CtGVq6OdzhweH-135" edge="1">
          <mxGeometry relative="1" as="geometry" />
        </mxCell>
        <mxCell id="5CUBUq4CtGVq6OdzhweH-130" value="Loading" style="whiteSpace=wrap;html=1;fontStyle=1;fillColor=#f5f5f5;strokeColor=#66B2FF;fontColor=#333333;" parent="1" vertex="1">
          <mxGeometry x="500" y="3092" width="280" height="60" as="geometry" />
        </mxCell>
        <mxCell id="5CUBUq4CtGVq6OdzhweH-131" style="edgeStyle=orthogonalEdgeStyle;rounded=0;orthogonalLoop=1;jettySize=auto;html=1;entryX=0;entryY=0.5;entryDx=0;entryDy=0;startArrow=classic;startFill=1;exitX=1;exitY=0.5;exitDx=0;exitDy=0;strokeColor=#66B2FF;" parent="1" source="5CUBUq4CtGVq6OdzhweH-116" target="5CUBUq4CtGVq6OdzhweH-130" edge="1">
          <mxGeometry relative="1" as="geometry">
            <mxPoint x="380" y="3000" as="sourcePoint" />
            <mxPoint x="510" y="3000" as="targetPoint" />
          </mxGeometry>
        </mxCell>
        <mxCell id="5CUBUq4CtGVq6OdzhweH-132" value="ARR #1" style="rhombus;whiteSpace=wrap;html=1;labelBackgroundColor=none;labelBorderColor=none;fillColor=#d5e8d4;strokeColor=#82b366;" parent="1" vertex="1">
          <mxGeometry x="330" y="3000" width="60" height="60" as="geometry" />
        </mxCell>
        <mxCell id="5CUBUq4CtGVq6OdzhweH-133" value="MAN #2" style="rhombus;whiteSpace=wrap;html=1;labelBackgroundColor=none;labelBorderColor=none;fillColor=#d5e8d4;strokeColor=#82b366;" parent="1" vertex="1">
          <mxGeometry x="210" y="3060" width="60" height="60" as="geometry" />
        </mxCell>
        <mxCell id="5CUBUq4CtGVq6OdzhweH-135" value="TransportMovement&lt;br&gt;LH424/17OCT2023 MUC-BOS" style="whiteSpace=wrap;html=1;fontStyle=1;fillColor=#f5f5f5;strokeColor=#66B2FF;fontColor=#333333;" parent="1" vertex="1">
          <mxGeometry x="860" y="3092" width="280" height="60" as="geometry" />
        </mxCell>
        <mxCell id="5CUBUq4CtGVq6OdzhweH-136" value="MAN #1" style="rhombus;whiteSpace=wrap;html=1;labelBackgroundColor=none;labelBorderColor=none;fillColor=#d5e8d4;strokeColor=#82b366;" parent="1" vertex="1">
          <mxGeometry x="850" y="3008" width="60" height="60" as="geometry" />
        </mxCell>
        <mxCell id="5CUBUq4CtGVq6OdzhweH-137" value="DEP #1" style="rhombus;whiteSpace=wrap;html=1;labelBackgroundColor=none;labelBorderColor=none;fillColor=#d5e8d4;strokeColor=#82b366;" parent="1" vertex="1">
          <mxGeometry x="910" y="3008" width="60" height="60" as="geometry" />
        </mxCell>
        <mxCell id="5CUBUq4CtGVq6OdzhweH-138" value="ARR #1" style="rhombus;whiteSpace=wrap;html=1;labelBackgroundColor=none;labelBorderColor=none;fillColor=#d5e8d4;strokeColor=#82b366;" parent="1" vertex="1">
          <mxGeometry x="970" y="3008" width="60" height="60" as="geometry" />
        </mxCell>
        <mxCell id="5CUBUq4CtGVq6OdzhweH-139" value="MAN #2" style="rhombus;whiteSpace=wrap;html=1;labelBackgroundColor=none;labelBorderColor=none;fillColor=#d5e8d4;strokeColor=#82b366;" parent="1" vertex="1">
          <mxGeometry x="850" y="3138" width="60" height="60" as="geometry" />
        </mxCell>
        <mxCell id="5CUBUq4CtGVq6OdzhweH-144" value="Split Transit Shipment with two pieces" style="text;html=1;strokeColor=none;fillColor=none;align=right;verticalAlign=middle;whiteSpace=wrap;rounded=0;fontSize=21;fontStyle=1" parent="1" vertex="1">
          <mxGeometry x="-640" y="2610" width="550" height="30" as="geometry" />
        </mxCell>
        <mxCell id="5CUBUq4CtGVq6OdzhweH-162" style="edgeStyle=orthogonalEdgeStyle;rounded=0;orthogonalLoop=1;jettySize=auto;html=1;entryX=0;entryY=0.5;entryDx=0;entryDy=0;startArrow=classic;startFill=1;strokeColor=#66B2FF;" parent="1" source="5CUBUq4CtGVq6OdzhweH-145" target="5CUBUq4CtGVq6OdzhweH-152" edge="1">
          <mxGeometry relative="1" as="geometry" />
        </mxCell>
        <mxCell id="5CUBUq4CtGVq6OdzhweH-145" value="Piece #2" style="whiteSpace=wrap;html=1;fontStyle=1;fillColor=#f5f5f5;strokeColor=#66B2FF;fontColor=#333333;" parent="1" vertex="1">
          <mxGeometry x="90" y="3270" width="280" height="60" as="geometry" />
        </mxCell>
        <mxCell id="5CUBUq4CtGVq6OdzhweH-151" style="edgeStyle=orthogonalEdgeStyle;rounded=0;orthogonalLoop=1;jettySize=auto;html=1;entryX=0;entryY=0.5;entryDx=0;entryDy=0;startArrow=classic;startFill=1;strokeColor=#66B2FF;" parent="1" source="5CUBUq4CtGVq6OdzhweH-152" target="5CUBUq4CtGVq6OdzhweH-153" edge="1">
          <mxGeometry relative="1" as="geometry">
            <mxPoint x="860" y="3300" as="targetPoint" />
          </mxGeometry>
        </mxCell>
        <mxCell id="5CUBUq4CtGVq6OdzhweH-152" value="Loading" style="whiteSpace=wrap;html=1;fontStyle=1;fillColor=#f5f5f5;strokeColor=#66B2FF;fontColor=#333333;" parent="1" vertex="1">
          <mxGeometry x="500" y="3270" width="280" height="60" as="geometry" />
        </mxCell>
        <mxCell id="5CUBUq4CtGVq6OdzhweH-153" value="TransportMovement&lt;br&gt;LH123/16OCT2023 FRA-HAM" style="whiteSpace=wrap;html=1;fontStyle=1;fillColor=#f5f5f5;strokeColor=#66B2FF;fontColor=#333333;" parent="1" vertex="1">
          <mxGeometry x="860" y="3270" width="280" height="60" as="geometry" />
        </mxCell>
        <mxCell id="5CUBUq4CtGVq6OdzhweH-154" style="edgeStyle=orthogonalEdgeStyle;rounded=0;orthogonalLoop=1;jettySize=auto;html=1;entryX=0;entryY=0.5;entryDx=0;entryDy=0;startArrow=classic;startFill=1;strokeColor=#66B2FF;" parent="1" source="5CUBUq4CtGVq6OdzhweH-155" target="5CUBUq4CtGVq6OdzhweH-156" edge="1">
          <mxGeometry relative="1" as="geometry" />
        </mxCell>
        <mxCell id="5CUBUq4CtGVq6OdzhweH-155" value="Loading" style="whiteSpace=wrap;html=1;fontStyle=1;fillColor=#f5f5f5;strokeColor=#66B2FF;fontColor=#333333;" parent="1" vertex="1">
          <mxGeometry x="500" y="3402" width="280" height="60" as="geometry" />
        </mxCell>
        <mxCell id="5CUBUq4CtGVq6OdzhweH-156" value="TransportMovement&lt;br&gt;LH345/17OCT2023 HAM-BOS" style="whiteSpace=wrap;html=1;fontStyle=1;fillColor=#f5f5f5;strokeColor=#66B2FF;fontColor=#333333;" parent="1" vertex="1">
          <mxGeometry x="860" y="3402" width="280" height="60" as="geometry" />
        </mxCell>
        <mxCell id="5CUBUq4CtGVq6OdzhweH-157" value="MAN #3" style="rhombus;whiteSpace=wrap;html=1;labelBackgroundColor=none;labelBorderColor=none;fillColor=#d5e8d4;strokeColor=#82b366;" parent="1" vertex="1">
          <mxGeometry x="850" y="3318" width="60" height="60" as="geometry" />
        </mxCell>
        <mxCell id="5CUBUq4CtGVq6OdzhweH-158" value="DEP #3" style="rhombus;whiteSpace=wrap;html=1;labelBackgroundColor=none;labelBorderColor=none;fillColor=#d5e8d4;strokeColor=#82b366;" parent="1" vertex="1">
          <mxGeometry x="910" y="3318" width="60" height="60" as="geometry" />
        </mxCell>
        <mxCell id="5CUBUq4CtGVq6OdzhweH-160" value="MAN #4" style="rhombus;whiteSpace=wrap;html=1;labelBackgroundColor=none;labelBorderColor=none;fillColor=#d5e8d4;strokeColor=#82b366;" parent="1" vertex="1">
          <mxGeometry x="850" y="3448" width="60" height="60" as="geometry" />
        </mxCell>
        <mxCell id="5CUBUq4CtGVq6OdzhweH-163" value="MAN" style="rhombus;whiteSpace=wrap;html=1;labelBackgroundColor=none;labelBorderColor=none;fillColor=#d5e8d4;strokeColor=#82b366;" parent="1" vertex="1">
          <mxGeometry x="244" y="2100" width="60" height="60" as="geometry" />
        </mxCell>
        <mxCell id="5CUBUq4CtGVq6OdzhweH-166" value="DEP" style="rhombus;whiteSpace=wrap;html=1;labelBackgroundColor=none;labelBorderColor=none;fillColor=#d5e8d4;strokeColor=#82b366;" parent="1" vertex="1">
          <mxGeometry x="305" y="2100" width="60" height="60" as="geometry" />
        </mxCell>
        <mxCell id="5CUBUq4CtGVq6OdzhweH-167" value="Piece #1" style="whiteSpace=wrap;html=1;fontStyle=1;fillColor=#f5f5f5;strokeColor=#66B2FF;fontColor=#333333;" parent="1" vertex="1">
          <mxGeometry x="1500" y="2302" width="280" height="60" as="geometry" />
        </mxCell>
        <mxCell id="5CUBUq4CtGVq6OdzhweH-168" style="edgeStyle=orthogonalEdgeStyle;rounded=0;orthogonalLoop=1;jettySize=auto;html=1;entryX=0;entryY=0.5;entryDx=0;entryDy=0;exitX=0.028;exitY=1.047;exitDx=0;exitDy=0;exitPerimeter=0;strokeColor=#66B2FF;startArrow=classic;startFill=1;" parent="1" source="5CUBUq4CtGVq6OdzhweH-169" target="5CUBUq4CtGVq6OdzhweH-167" edge="1">
          <mxGeometry relative="1" as="geometry">
            <Array as="points">
              <mxPoint x="1448" y="2332" />
            </Array>
          </mxGeometry>
        </mxCell>
        <mxCell id="5CUBUq4CtGVq6OdzhweH-169" value="Shipment (FRA-MUC-BOS)" style="whiteSpace=wrap;html=1;fontStyle=1;fillColor=#f5f5f5;strokeColor=#66B2FF;fontColor=#333333;" parent="1" vertex="1">
          <mxGeometry x="1430" y="2060" width="630" height="60" as="geometry" />
        </mxCell>
        <mxCell id="5CUBUq4CtGVq6OdzhweH-170" style="edgeStyle=orthogonalEdgeStyle;rounded=0;orthogonalLoop=1;jettySize=auto;html=1;entryX=0;entryY=0.5;entryDx=0;entryDy=0;startArrow=classic;startFill=1;strokeColor=#66B2FF;" parent="1" source="5CUBUq4CtGVq6OdzhweH-167" target="5CUBUq4CtGVq6OdzhweH-181" edge="1">
          <mxGeometry relative="1" as="geometry" />
        </mxCell>
        <mxCell id="5CUBUq4CtGVq6OdzhweH-171" value="FOH" style="rhombus;whiteSpace=wrap;html=1;labelBackgroundColor=none;labelBorderColor=none;fillColor=#d5e8d4;strokeColor=#82b366;" parent="1" vertex="1">
          <mxGeometry x="1500" y="2342" width="60" height="60" as="geometry" />
        </mxCell>
        <mxCell id="5CUBUq4CtGVq6OdzhweH-172" value="RCS" style="rhombus;whiteSpace=wrap;html=1;labelBackgroundColor=none;labelBorderColor=none;fillColor=#d5e8d4;strokeColor=#82b366;" parent="1" vertex="1">
          <mxGeometry x="1560" y="2342" width="60" height="60" as="geometry" />
        </mxCell>
        <mxCell id="5CUBUq4CtGVq6OdzhweH-173" value="BKD" style="rhombus;whiteSpace=wrap;html=1;labelBackgroundColor=none;labelBorderColor=none;fillColor=#d5e8d4;strokeColor=#82b366;" parent="1" vertex="1">
          <mxGeometry x="1484" y="2102" width="60" height="60" as="geometry" />
        </mxCell>
        <mxCell id="5CUBUq4CtGVq6OdzhweH-174" value="FOH" style="rhombus;whiteSpace=wrap;html=1;labelBackgroundColor=none;labelBorderColor=none;fillColor=#d5e8d4;strokeColor=#82b366;" parent="1" vertex="1">
          <mxGeometry x="1544" y="2102" width="60" height="60" as="geometry" />
        </mxCell>
        <mxCell id="5CUBUq4CtGVq6OdzhweH-175" value="RCS" style="rhombus;whiteSpace=wrap;html=1;labelBackgroundColor=none;labelBorderColor=none;fillColor=#d5e8d4;strokeColor=#82b366;" parent="1" vertex="1">
          <mxGeometry x="1604" y="2102" width="60" height="60" as="geometry" />
        </mxCell>
        <mxCell id="5CUBUq4CtGVq6OdzhweH-176" value="MAN #1" style="rhombus;whiteSpace=wrap;html=1;labelBackgroundColor=none;labelBorderColor=none;fillColor=#fff2cc;gradientDirection=east;strokeColor=#d6b656;dashed=1;" parent="1" vertex="1">
          <mxGeometry x="1664" y="2160" width="60" height="60" as="geometry" />
        </mxCell>
        <mxCell id="5CUBUq4CtGVq6OdzhweH-177" value="DEP #1" style="rhombus;whiteSpace=wrap;html=1;labelBackgroundColor=none;labelBorderColor=none;fillColor=#fff2cc;gradientDirection=east;strokeColor=#d6b656;dashed=1;" parent="1" vertex="1">
          <mxGeometry x="1725" y="2160" width="60" height="60" as="geometry" />
        </mxCell>
        <mxCell id="5CUBUq4CtGVq6OdzhweH-178" value="MAN #1" style="rhombus;whiteSpace=wrap;html=1;labelBackgroundColor=none;labelBorderColor=none;fillColor=#d5e8d4;strokeColor=#82b366;" parent="1" vertex="1">
          <mxGeometry x="1620" y="2342" width="60" height="60" as="geometry" />
        </mxCell>
        <mxCell id="5CUBUq4CtGVq6OdzhweH-179" value="DEP #1" style="rhombus;whiteSpace=wrap;html=1;labelBackgroundColor=none;labelBorderColor=none;fillColor=#d5e8d4;strokeColor=#82b366;" parent="1" vertex="1">
          <mxGeometry x="1680" y="2342" width="60" height="60" as="geometry" />
        </mxCell>
        <mxCell id="5CUBUq4CtGVq6OdzhweH-180" style="edgeStyle=orthogonalEdgeStyle;rounded=0;orthogonalLoop=1;jettySize=auto;html=1;entryX=0;entryY=0.5;entryDx=0;entryDy=0;startArrow=classic;startFill=1;strokeColor=#66B2FF;" parent="1" source="5CUBUq4CtGVq6OdzhweH-181" target="5CUBUq4CtGVq6OdzhweH-182" edge="1">
          <mxGeometry relative="1" as="geometry">
            <mxPoint x="2270" y="2332" as="targetPoint" />
          </mxGeometry>
        </mxCell>
        <mxCell id="5CUBUq4CtGVq6OdzhweH-181" value="Loading" style="whiteSpace=wrap;html=1;fontStyle=1;fillColor=#f5f5f5;strokeColor=#66B2FF;fontColor=#333333;" parent="1" vertex="1">
          <mxGeometry x="1910" y="2302" width="280" height="60" as="geometry" />
        </mxCell>
        <mxCell id="5CUBUq4CtGVq6OdzhweH-182" value="TransportMovement&lt;br&gt;LH100/16OCT2023 FRA-MUC" style="whiteSpace=wrap;html=1;fontStyle=1;fillColor=#f5f5f5;strokeColor=#66B2FF;fontColor=#333333;" parent="1" vertex="1">
          <mxGeometry x="2270" y="2302" width="280" height="60" as="geometry" />
        </mxCell>
        <mxCell id="5CUBUq4CtGVq6OdzhweH-186" value="ARR #1" style="rhombus;whiteSpace=wrap;html=1;labelBackgroundColor=none;labelBorderColor=none;fillColor=#d5e8d4;strokeColor=#82b366;" parent="1" vertex="1">
          <mxGeometry x="1740" y="2342" width="60" height="60" as="geometry" />
        </mxCell>
        <mxCell id="5CUBUq4CtGVq6OdzhweH-189" value="MAN #1" style="rhombus;whiteSpace=wrap;html=1;labelBackgroundColor=none;labelBorderColor=none;fillColor=#d5e8d4;strokeColor=#82b366;" parent="1" vertex="1">
          <mxGeometry x="2260" y="2350" width="60" height="60" as="geometry" />
        </mxCell>
        <mxCell id="5CUBUq4CtGVq6OdzhweH-190" value="DEP #1" style="rhombus;whiteSpace=wrap;html=1;labelBackgroundColor=none;labelBorderColor=none;fillColor=#d5e8d4;strokeColor=#82b366;" parent="1" vertex="1">
          <mxGeometry x="2320" y="2350" width="60" height="60" as="geometry" />
        </mxCell>
        <mxCell id="5CUBUq4CtGVq6OdzhweH-191" value="ARR #1" style="rhombus;whiteSpace=wrap;html=1;labelBackgroundColor=none;labelBorderColor=none;fillColor=#d5e8d4;strokeColor=#82b366;" parent="1" vertex="1">
          <mxGeometry x="2380" y="2350" width="60" height="60" as="geometry" />
        </mxCell>
        <mxCell id="5CUBUq4CtGVq6OdzhweH-193" value="ARR #1" style="rhombus;whiteSpace=wrap;html=1;labelBackgroundColor=none;labelBorderColor=none;fillColor=#fff2cc;strokeColor=#d6b656;dashed=1;" parent="1" vertex="1">
          <mxGeometry x="1784" y="2160" width="60" height="60" as="geometry" />
        </mxCell>
        <mxCell id="5CUBUq4CtGVq6OdzhweH-196" value="DEP" style="rhombus;whiteSpace=wrap;html=1;labelBackgroundColor=none;labelBorderColor=none;fillColor=#d5e8d4;strokeColor=#82b366;" parent="1" vertex="1">
          <mxGeometry x="1725" y="2100" width="60" height="60" as="geometry" />
        </mxCell>
        <mxCell id="5CUBUq4CtGVq6OdzhweH-197" value="MAN #1" style="rhombus;whiteSpace=wrap;html=1;labelBackgroundColor=none;labelBorderColor=none;fillColor=#fff2cc;gradientDirection=east;strokeColor=#d6b656;dashed=1;" parent="1" vertex="1">
          <mxGeometry x="254" y="2702" width="60" height="60" as="geometry" />
        </mxCell>
        <mxCell id="5CUBUq4CtGVq6OdzhweH-198" value="MAN #2" style="rhombus;whiteSpace=wrap;html=1;labelBackgroundColor=none;labelBorderColor=none;fillColor=#fff2cc;gradientDirection=east;strokeColor=#d6b656;dashed=1;" parent="1" vertex="1">
          <mxGeometry x="254" y="2762" width="60" height="60" as="geometry" />
        </mxCell>
        <mxCell id="5CUBUq4CtGVq6OdzhweH-199" value="MAN #3" style="rhombus;whiteSpace=wrap;html=1;labelBackgroundColor=none;labelBorderColor=none;fillColor=#fff2cc;gradientDirection=east;strokeColor=#d6b656;dashed=1;" parent="1" vertex="1">
          <mxGeometry x="254" y="2822" width="60" height="60" as="geometry" />
        </mxCell>
        <mxCell id="5CUBUq4CtGVq6OdzhweH-200" value="MAN #4" style="rhombus;whiteSpace=wrap;html=1;labelBackgroundColor=none;labelBorderColor=none;fillColor=#fff2cc;gradientDirection=east;strokeColor=#d6b656;dashed=1;" parent="1" vertex="1">
          <mxGeometry x="254" y="2882" width="60" height="60" as="geometry" />
        </mxCell>
        <mxCell id="5CUBUq4CtGVq6OdzhweH-201" value="DEP #1" style="rhombus;whiteSpace=wrap;html=1;labelBackgroundColor=none;labelBorderColor=none;fillColor=#fff2cc;gradientDirection=east;strokeColor=#d6b656;dashed=1;" parent="1" vertex="1">
          <mxGeometry x="314" y="2702" width="60" height="60" as="geometry" />
        </mxCell>
        <mxCell id="5CUBUq4CtGVq6OdzhweH-202" value="DEP #3" style="rhombus;whiteSpace=wrap;html=1;labelBackgroundColor=none;labelBorderColor=none;fillColor=#fff2cc;gradientDirection=east;strokeColor=#d6b656;dashed=1;" parent="1" vertex="1">
          <mxGeometry x="314" y="2822" width="60" height="60" as="geometry" />
        </mxCell>
        <mxCell id="5CUBUq4CtGVq6OdzhweH-203" style="edgeStyle=orthogonalEdgeStyle;rounded=0;orthogonalLoop=1;jettySize=auto;html=1;entryX=0;entryY=0.5;entryDx=0;entryDy=0;startArrow=classic;startFill=1;strokeColor=#66B2FF;exitX=1;exitY=0.5;exitDx=0;exitDy=0;" parent="1" source="5CUBUq4CtGVq6OdzhweH-145" target="5CUBUq4CtGVq6OdzhweH-155" edge="1">
          <mxGeometry relative="1" as="geometry">
            <mxPoint x="380" y="3310" as="sourcePoint" />
            <mxPoint x="510" y="3310" as="targetPoint" />
          </mxGeometry>
        </mxCell>
        <mxCell id="5CUBUq4CtGVq6OdzhweH-204" value="ARR #1" style="rhombus;whiteSpace=wrap;html=1;labelBackgroundColor=none;labelBorderColor=none;fillColor=#fff2cc;gradientDirection=east;strokeColor=#d6b656;dashed=1;" parent="1" vertex="1">
          <mxGeometry x="374" y="2702" width="60" height="60" as="geometry" />
        </mxCell>
        <mxCell id="5CUBUq4CtGVq6OdzhweH-206" value="FOH" style="rhombus;whiteSpace=wrap;html=1;labelBackgroundColor=none;labelBorderColor=none;fillColor=#d5e8d4;strokeColor=#82b366;" parent="1" vertex="1">
          <mxGeometry x="85" y="3318" width="60" height="60" as="geometry" />
        </mxCell>
        <mxCell id="5CUBUq4CtGVq6OdzhweH-207" value="RCS" style="rhombus;whiteSpace=wrap;html=1;labelBackgroundColor=none;labelBorderColor=none;fillColor=#d5e8d4;strokeColor=#82b366;" parent="1" vertex="1">
          <mxGeometry x="145" y="3318" width="60" height="60" as="geometry" />
        </mxCell>
        <mxCell id="5CUBUq4CtGVq6OdzhweH-208" value="MAN #3" style="rhombus;whiteSpace=wrap;html=1;labelBackgroundColor=none;labelBorderColor=none;fillColor=#d5e8d4;strokeColor=#82b366;" parent="1" vertex="1">
          <mxGeometry x="205" y="3318" width="60" height="60" as="geometry" />
        </mxCell>
        <mxCell id="5CUBUq4CtGVq6OdzhweH-209" value="DEP #3" style="rhombus;whiteSpace=wrap;html=1;labelBackgroundColor=none;labelBorderColor=none;fillColor=#d5e8d4;strokeColor=#82b366;" parent="1" vertex="1">
          <mxGeometry x="265" y="3318" width="60" height="60" as="geometry" />
        </mxCell>
        <mxCell id="5CUBUq4CtGVq6OdzhweH-210" value="MAN #4" style="rhombus;whiteSpace=wrap;html=1;labelBackgroundColor=none;labelBorderColor=none;fillColor=#d5e8d4;strokeColor=#82b366;" parent="1" vertex="1">
          <mxGeometry x="205" y="3378" width="60" height="60" as="geometry" />
        </mxCell>
        <mxCell id="y9lGfiteLyOonodlUq__-11" style="edgeStyle=orthogonalEdgeStyle;rounded=0;orthogonalLoop=1;jettySize=auto;html=1;entryX=0;entryY=0.5;entryDx=0;entryDy=0;exitX=0.058;exitY=0.967;exitDx=0;exitDy=0;exitPerimeter=0;startArrow=classic;startFill=1;strokeColor=#66B2FF;" parent="1" source="y9lGfiteLyOonodlUq__-12" target="y9lGfiteLyOonodlUq__-13" edge="1">
          <mxGeometry relative="1" as="geometry" />
        </mxCell>
        <mxCell id="y9lGfiteLyOonodlUq__-12" value="Shipment" style="whiteSpace=wrap;html=1;fontStyle=1;fillColor=#f5f5f5;strokeColor=#66B2FF;fontColor=#333333;" parent="1" vertex="1">
          <mxGeometry x="40" y="160" width="330" height="60" as="geometry" />
        </mxCell>
        <mxCell id="y9lGfiteLyOonodlUq__-13" value="Piece" style="whiteSpace=wrap;html=1;fontStyle=1;fillColor=#f5f5f5;strokeColor=#66B2FF;fontColor=#333333;" parent="1" vertex="1">
          <mxGeometry x="80" y="282" width="280" height="60" as="geometry" />
        </mxCell>
        <mxCell id="y9lGfiteLyOonodlUq__-14" value="FOH&lt;br&gt;(PLAN)" style="rhombus;whiteSpace=wrap;html=1;labelBackgroundColor=none;labelBorderColor=none;fillColor=#d5e8d4;strokeColor=#82b366;" parent="1" vertex="1">
          <mxGeometry x="80" y="322" width="60" height="60" as="geometry" />
        </mxCell>
        <mxCell id="y9lGfiteLyOonodlUq__-15" value="RCS&lt;br&gt;(PLAN)" style="rhombus;whiteSpace=wrap;html=1;labelBackgroundColor=none;labelBorderColor=none;fillColor=#d5e8d4;strokeColor=#82b366;" parent="1" vertex="1">
          <mxGeometry x="140" y="322" width="60" height="60" as="geometry" />
        </mxCell>
        <mxCell id="y9lGfiteLyOonodlUq__-16" value="BKD&lt;br&gt;(ACT)" style="rhombus;whiteSpace=wrap;html=1;labelBackgroundColor=none;labelBorderColor=none;fillColor=#d5e8d4;strokeColor=#82b366;" parent="1" vertex="1">
          <mxGeometry x="64" y="202" width="60" height="60" as="geometry" />
        </mxCell>
        <mxCell id="y9lGfiteLyOonodlUq__-17" value="FOH&lt;br&gt;(PLAN)" style="rhombus;whiteSpace=wrap;html=1;labelBackgroundColor=none;labelBorderColor=none;fillColor=#d5e8d4;strokeColor=#82b366;" parent="1" vertex="1">
          <mxGeometry x="124" y="202" width="60" height="60" as="geometry" />
        </mxCell>
        <mxCell id="y9lGfiteLyOonodlUq__-18" value="RCS&lt;br&gt;(PLAN)" style="rhombus;whiteSpace=wrap;html=1;labelBackgroundColor=none;labelBorderColor=none;fillColor=#d5e8d4;strokeColor=#82b366;" parent="1" vertex="1">
          <mxGeometry x="184" y="202" width="60" height="60" as="geometry" />
        </mxCell>
        <mxCell id="y9lGfiteLyOonodlUq__-19" value="" style="whiteSpace=wrap;html=1;fontStyle=1;fillColor=none;strokeColor=none;fontColor=none;noLabel=1;" parent="1" vertex="1">
          <mxGeometry x="850" y="282" width="280" height="60" as="geometry" />
        </mxCell>
        <mxCell id="y9lGfiteLyOonodlUq__-20" value="Shipment with one piece (planned and actual events)" style="text;html=1;strokeColor=none;fillColor=none;align=right;verticalAlign=middle;whiteSpace=wrap;rounded=0;fontSize=21;fontStyle=1" parent="1" vertex="1">
          <mxGeometry x="-640" y="180" width="550" height="30" as="geometry" />
        </mxCell>
        <mxCell id="y9lGfiteLyOonodlUq__-21" value="Legend" style="text;html=1;strokeColor=none;fillColor=none;align=right;verticalAlign=middle;whiteSpace=wrap;rounded=0;fontSize=21;fontStyle=1" parent="1" vertex="1">
          <mxGeometry x="-650" y="-790" width="550" height="30" as="geometry" />
        </mxCell>
        <mxCell id="y9lGfiteLyOonodlUq__-34" value="" style="group" parent="1" vertex="1" connectable="0">
          <mxGeometry x="45" y="-651" width="305" height="60" as="geometry" />
        </mxCell>
        <mxCell id="y9lGfiteLyOonodlUq__-23" value="DEP&lt;br&gt;(Plan)" style="rhombus;whiteSpace=wrap;html=1;labelBackgroundColor=none;labelBorderColor=none;fillColor=#d5e8d4;strokeColor=#82b366;" parent="y9lGfiteLyOonodlUq__-34" vertex="1">
          <mxGeometry width="60" height="60" as="geometry" />
        </mxCell>
        <mxCell id="y9lGfiteLyOonodlUq__-24" value="Planned LogisticsEvent without partialEventIndicator" style="text;html=1;strokeColor=none;fillColor=none;align=left;verticalAlign=middle;whiteSpace=wrap;rounded=0;" parent="y9lGfiteLyOonodlUq__-34" vertex="1">
          <mxGeometry x="75" y="15" width="230" height="30" as="geometry" />
        </mxCell>
        <mxCell id="y9lGfiteLyOonodlUq__-35" value="" style="group" parent="1" vertex="1" connectable="0">
          <mxGeometry x="45" y="-574" width="305" height="60" as="geometry" />
        </mxCell>
        <mxCell id="y9lGfiteLyOonodlUq__-26" value="Planned LogisticsEvent with partialEventIndicator = true" style="text;html=1;strokeColor=none;fillColor=none;align=left;verticalAlign=middle;whiteSpace=wrap;rounded=0;" parent="y9lGfiteLyOonodlUq__-35" vertex="1">
          <mxGeometry x="75" y="15" width="230" height="30" as="geometry" />
        </mxCell>
        <mxCell id="y9lGfiteLyOonodlUq__-31" value="DEP&lt;br&gt;(Plan)" style="rhombus;whiteSpace=wrap;html=1;labelBackgroundColor=none;labelBorderColor=none;fillColor=#fff2cc;strokeColor=#d6b656;dashed=1;" parent="y9lGfiteLyOonodlUq__-35" vertex="1">
          <mxGeometry width="60" height="60" as="geometry" />
        </mxCell>
        <mxCell id="y9lGfiteLyOonodlUq__-38" value="" style="group" parent="1" vertex="1" connectable="0">
          <mxGeometry x="45" y="-420" width="305" height="60" as="geometry" />
        </mxCell>
        <mxCell id="y9lGfiteLyOonodlUq__-28" value="Actual LogisticsEvent with partialEventIndicator = true" style="text;html=1;strokeColor=none;fillColor=none;align=left;verticalAlign=middle;whiteSpace=wrap;rounded=0;" parent="y9lGfiteLyOonodlUq__-38" vertex="1">
          <mxGeometry x="75" y="15" width="230" height="30" as="geometry" />
        </mxCell>
        <mxCell id="y9lGfiteLyOonodlUq__-30" value="DEP&lt;br&gt;(Act)" style="rhombus;whiteSpace=wrap;html=1;labelBackgroundColor=none;labelBorderColor=none;fillColor=#fff2cc;strokeColor=#d6b656;dashed=1;" parent="y9lGfiteLyOonodlUq__-38" vertex="1">
          <mxGeometry width="60" height="60" as="geometry" />
        </mxCell>
        <mxCell id="y9lGfiteLyOonodlUq__-39" value="" style="group" parent="1" vertex="1" connectable="0">
          <mxGeometry x="45" y="-497" width="305" height="60" as="geometry" />
        </mxCell>
        <mxCell id="y9lGfiteLyOonodlUq__-27" value="Actual LogisticsEvent without partialEventIndicator" style="text;html=1;strokeColor=none;fillColor=none;align=left;verticalAlign=middle;whiteSpace=wrap;rounded=0;" parent="y9lGfiteLyOonodlUq__-39" vertex="1">
          <mxGeometry x="75" y="15" width="230" height="30" as="geometry" />
        </mxCell>
        <mxCell id="y9lGfiteLyOonodlUq__-29" value="DEP&lt;br&gt;(Act)" style="rhombus;whiteSpace=wrap;html=1;labelBackgroundColor=none;labelBorderColor=none;fillColor=#d5e8d4;strokeColor=#82b366;" parent="y9lGfiteLyOonodlUq__-39" vertex="1">
          <mxGeometry width="60" height="60" as="geometry" />
        </mxCell>
        <mxCell id="y9lGfiteLyOonodlUq__-40" value="" style="group" parent="1" vertex="1" connectable="0">
          <mxGeometry x="40" y="-728" width="310" height="60" as="geometry" />
        </mxCell>
        <mxCell id="y9lGfiteLyOonodlUq__-22" value="Piece" style="whiteSpace=wrap;html=1;fontStyle=1;fillColor=#fff2cc;strokeColor=#d6b656;dashed=1;" parent="y9lGfiteLyOonodlUq__-40" vertex="1">
          <mxGeometry width="70" height="60" as="geometry" />
        </mxCell>
        <mxCell id="y9lGfiteLyOonodlUq__-36" value="LogisticsObject with&lt;br&gt;skeletonIndicator=true" style="text;html=1;strokeColor=none;fillColor=none;align=left;verticalAlign=middle;whiteSpace=wrap;rounded=0;" parent="y9lGfiteLyOonodlUq__-40" vertex="1">
          <mxGeometry x="80" y="15" width="230" height="30" as="geometry" />
        </mxCell>
        <mxCell id="y9lGfiteLyOonodlUq__-42" value="" style="whiteSpace=wrap;html=1;fontStyle=1;fillColor=none;strokeColor=none;fontColor=none;noLabel=1;" parent="1" vertex="1">
          <mxGeometry x="850" y="52" width="280" height="60" as="geometry" />
        </mxCell>
        <mxCell id="y9lGfiteLyOonodlUq__-33" value="Piece" style="whiteSpace=wrap;html=1;fontStyle=1;fillColor=#f5f5f5;strokeColor=#66B2FF;fontColor=#333333;" parent="1" vertex="1">
          <mxGeometry x="40" y="-805" width="70" height="60" as="geometry" />
        </mxCell>
        <mxCell id="y9lGfiteLyOonodlUq__-37" value="LogisticsObject" style="text;html=1;strokeColor=none;fillColor=none;align=left;verticalAlign=middle;whiteSpace=wrap;rounded=0;" parent="1" vertex="1">
          <mxGeometry x="120" y="-790" width="230" height="30" as="geometry" />
        </mxCell>
        <mxCell id="y9lGfiteLyOonodlUq__-45" value="FOH&lt;br&gt;(ACT)" style="rhombus;whiteSpace=wrap;html=1;labelBackgroundColor=none;labelBorderColor=none;fillColor=#d5e8d4;strokeColor=#82b366;" parent="1" vertex="1">
          <mxGeometry x="200" y="322" width="60" height="60" as="geometry" />
        </mxCell>
        <mxCell id="y9lGfiteLyOonodlUq__-46" value="RCS&lt;br&gt;(ACT)" style="rhombus;whiteSpace=wrap;html=1;labelBackgroundColor=none;labelBorderColor=none;fillColor=#d5e8d4;strokeColor=#82b366;" parent="1" vertex="1">
          <mxGeometry x="260" y="322" width="60" height="60" as="geometry" />
        </mxCell>
        <mxCell id="y9lGfiteLyOonodlUq__-47" value="FOH&lt;br&gt;(ACT)" style="rhombus;whiteSpace=wrap;html=1;labelBackgroundColor=none;labelBorderColor=none;fillColor=#d5e8d4;strokeColor=#82b366;" parent="1" vertex="1">
          <mxGeometry x="244" y="202" width="60" height="60" as="geometry" />
        </mxCell>
        <mxCell id="y9lGfiteLyOonodlUq__-48" value="RCS&lt;br&gt;(ACT)" style="rhombus;whiteSpace=wrap;html=1;labelBackgroundColor=none;labelBorderColor=none;fillColor=#d5e8d4;strokeColor=#82b366;" parent="1" vertex="1">
          <mxGeometry x="304" y="202" width="60" height="60" as="geometry" />
        </mxCell>
        <mxCell id="y9lGfiteLyOonodlUq__-68" style="edgeStyle=orthogonalEdgeStyle;rounded=0;orthogonalLoop=1;jettySize=auto;html=1;entryX=0;entryY=0.5;entryDx=0;entryDy=0;exitX=0.058;exitY=0.967;exitDx=0;exitDy=0;exitPerimeter=0;startArrow=classic;startFill=1;strokeColor=#66B2FF;" parent="1" source="y9lGfiteLyOonodlUq__-69" target="y9lGfiteLyOonodlUq__-71" edge="1">
          <mxGeometry relative="1" as="geometry" />
        </mxCell>
        <mxCell id="y9lGfiteLyOonodlUq__-69" value="Shipment 1" style="whiteSpace=wrap;html=1;fontStyle=1;fillColor=#f5f5f5;strokeColor=#66B2FF;fontColor=#333333;" parent="1" vertex="1">
          <mxGeometry x="2000" y="458" width="330" height="60" as="geometry" />
        </mxCell>
        <mxCell id="y9lGfiteLyOonodlUq__-70" style="edgeStyle=orthogonalEdgeStyle;rounded=0;orthogonalLoop=1;jettySize=auto;html=1;entryX=0;entryY=0.5;entryDx=0;entryDy=0;startArrow=classic;startFill=1;strokeColor=#66B2FF;" parent="1" source="y9lGfiteLyOonodlUq__-71" target="y9lGfiteLyOonodlUq__-82" edge="1">
          <mxGeometry relative="1" as="geometry" />
        </mxCell>
        <mxCell id="y9lGfiteLyOonodlUq__-71" value="Piece 1" style="whiteSpace=wrap;html=1;fontStyle=1;fillColor=#f5f5f5;strokeColor=#66B2FF;fontColor=#333333;" parent="1" vertex="1">
          <mxGeometry x="2040" y="580" width="280" height="60" as="geometry" />
        </mxCell>
        <mxCell id="y9lGfiteLyOonodlUq__-72" value="FOH&lt;br&gt;(PLAN)" style="rhombus;whiteSpace=wrap;html=1;labelBackgroundColor=none;labelBorderColor=none;fillColor=#d5e8d4;strokeColor=#82b366;" parent="1" vertex="1">
          <mxGeometry x="2040" y="620" width="60" height="60" as="geometry" />
        </mxCell>
        <mxCell id="y9lGfiteLyOonodlUq__-73" value="RCS&lt;br&gt;(PLAN)" style="rhombus;whiteSpace=wrap;html=1;labelBackgroundColor=none;labelBorderColor=none;fillColor=#d5e8d4;strokeColor=#82b366;" parent="1" vertex="1">
          <mxGeometry x="2100" y="620" width="60" height="60" as="geometry" />
        </mxCell>
        <mxCell id="y9lGfiteLyOonodlUq__-74" value="BKD&lt;br&gt;(ACT)" style="rhombus;whiteSpace=wrap;html=1;labelBackgroundColor=none;labelBorderColor=none;fillColor=#d5e8d4;strokeColor=#82b366;" parent="1" vertex="1">
          <mxGeometry x="2024" y="500" width="60" height="60" as="geometry" />
        </mxCell>
        <mxCell id="y9lGfiteLyOonodlUq__-75" value="FOH&lt;br&gt;(PLAN)" style="rhombus;whiteSpace=wrap;html=1;labelBackgroundColor=none;labelBorderColor=none;fillColor=#d5e8d4;strokeColor=#82b366;" parent="1" vertex="1">
          <mxGeometry x="2084" y="500" width="60" height="60" as="geometry" />
        </mxCell>
        <mxCell id="y9lGfiteLyOonodlUq__-76" value="RCS&lt;br&gt;(PLAN)" style="rhombus;whiteSpace=wrap;html=1;labelBackgroundColor=none;labelBorderColor=none;fillColor=#d5e8d4;strokeColor=#82b366;" parent="1" vertex="1">
          <mxGeometry x="2144" y="500" width="60" height="60" as="geometry" />
        </mxCell>
        <mxCell id="y9lGfiteLyOonodlUq__-77" value="MAN&lt;br&gt;(PLAN)" style="rhombus;whiteSpace=wrap;html=1;labelBackgroundColor=none;labelBorderColor=none;fillColor=#d5e8d4;strokeColor=#82b366;" parent="1" vertex="1">
          <mxGeometry x="2204" y="500" width="60" height="60" as="geometry" />
        </mxCell>
        <mxCell id="y9lGfiteLyOonodlUq__-78" value="DEP&lt;br&gt;(PLAN)" style="rhombus;whiteSpace=wrap;html=1;labelBackgroundColor=none;labelBorderColor=none;fillColor=#d5e8d4;strokeColor=#82b366;" parent="1" vertex="1">
          <mxGeometry x="2264" y="500" width="60" height="60" as="geometry" />
        </mxCell>
        <mxCell id="y9lGfiteLyOonodlUq__-79" value="MAN&lt;br&gt;(PLAN)" style="rhombus;whiteSpace=wrap;html=1;labelBackgroundColor=none;labelBorderColor=none;fillColor=#d5e8d4;strokeColor=#82b366;" parent="1" vertex="1">
          <mxGeometry x="2160" y="620" width="60" height="60" as="geometry" />
        </mxCell>
        <mxCell id="y9lGfiteLyOonodlUq__-80" value="DEP&lt;br&gt;(PLAN)" style="rhombus;whiteSpace=wrap;html=1;labelBackgroundColor=none;labelBorderColor=none;fillColor=#d5e8d4;strokeColor=#82b366;" parent="1" vertex="1">
          <mxGeometry x="2220" y="620" width="60" height="60" as="geometry" />
        </mxCell>
        <mxCell id="y9lGfiteLyOonodlUq__-81" style="edgeStyle=orthogonalEdgeStyle;rounded=0;orthogonalLoop=1;jettySize=auto;html=1;entryX=0;entryY=0.5;entryDx=0;entryDy=0;startArrow=classic;startFill=1;strokeColor=#66B2FF;" parent="1" source="y9lGfiteLyOonodlUq__-82" target="y9lGfiteLyOonodlUq__-83" edge="1">
          <mxGeometry relative="1" as="geometry" />
        </mxCell>
        <mxCell id="y9lGfiteLyOonodlUq__-82" value="Loading 1" style="whiteSpace=wrap;html=1;fontStyle=1;fillColor=#f5f5f5;strokeColor=#66B2FF;fontColor=#333333;" parent="1" vertex="1">
          <mxGeometry x="2450" y="580" width="280" height="60" as="geometry" />
        </mxCell>
        <mxCell id="y9lGfiteLyOonodlUq__-83" value="TransportMovement&lt;br&gt;LH400/16OCT2023 FRA-JFK" style="whiteSpace=wrap;html=1;fontStyle=1;fillColor=#f5f5f5;strokeColor=#66B2FF;fontColor=#333333;" parent="1" vertex="1">
          <mxGeometry x="2810" y="580" width="280" height="60" as="geometry" />
        </mxCell>
        <mxCell id="y9lGfiteLyOonodlUq__-84" value="Two shipments with one piece each planed on same flight" style="text;html=1;strokeColor=none;fillColor=none;align=right;verticalAlign=middle;whiteSpace=wrap;rounded=0;fontSize=21;fontStyle=1" parent="1" vertex="1">
          <mxGeometry x="1330" y="473" width="550" height="30" as="geometry" />
        </mxCell>
        <mxCell id="y9lGfiteLyOonodlUq__-85" value="MAN&lt;br&gt;(PLAN)" style="rhombus;whiteSpace=wrap;html=1;labelBackgroundColor=none;labelBorderColor=none;fillColor=#d5e8d4;strokeColor=#82b366;" parent="1" vertex="1">
          <mxGeometry x="2810" y="630" width="60" height="60" as="geometry" />
        </mxCell>
        <mxCell id="y9lGfiteLyOonodlUq__-86" value="DEP&lt;br&gt;(PLAN)" style="rhombus;whiteSpace=wrap;html=1;labelBackgroundColor=none;labelBorderColor=none;fillColor=#d5e8d4;strokeColor=#82b366;" parent="1" vertex="1">
          <mxGeometry x="2870" y="630" width="60" height="60" as="geometry" />
        </mxCell>
        <mxCell id="y9lGfiteLyOonodlUq__-87" style="edgeStyle=orthogonalEdgeStyle;rounded=0;orthogonalLoop=1;jettySize=auto;html=1;entryX=0;entryY=0.5;entryDx=0;entryDy=0;exitX=0.058;exitY=0.967;exitDx=0;exitDy=0;exitPerimeter=0;startArrow=classic;startFill=1;strokeColor=#66B2FF;" parent="1" source="y9lGfiteLyOonodlUq__-88" target="y9lGfiteLyOonodlUq__-90" edge="1">
          <mxGeometry relative="1" as="geometry" />
        </mxCell>
        <mxCell id="y9lGfiteLyOonodlUq__-88" value="Shipment 2" style="whiteSpace=wrap;html=1;fontStyle=1;fillColor=#f5f5f5;strokeColor=#66B2FF;fontColor=#333333;" parent="1" vertex="1">
          <mxGeometry x="2000" y="710" width="330" height="60" as="geometry" />
        </mxCell>
        <mxCell id="y9lGfiteLyOonodlUq__-89" style="edgeStyle=orthogonalEdgeStyle;rounded=0;orthogonalLoop=1;jettySize=auto;html=1;entryX=0;entryY=0.5;entryDx=0;entryDy=0;startArrow=classic;startFill=1;strokeColor=#66B2FF;" parent="1" source="y9lGfiteLyOonodlUq__-90" target="y9lGfiteLyOonodlUq__-100" edge="1">
          <mxGeometry relative="1" as="geometry" />
        </mxCell>
        <mxCell id="y9lGfiteLyOonodlUq__-90" value="Piece 2" style="whiteSpace=wrap;html=1;fontStyle=1;fillColor=#f5f5f5;strokeColor=#66B2FF;fontColor=#333333;" parent="1" vertex="1">
          <mxGeometry x="2040" y="832" width="280" height="60" as="geometry" />
        </mxCell>
        <mxCell id="y9lGfiteLyOonodlUq__-91" value="FOH&lt;br&gt;(PLAN)" style="rhombus;whiteSpace=wrap;html=1;labelBackgroundColor=none;labelBorderColor=none;fillColor=#d5e8d4;strokeColor=#82b366;" parent="1" vertex="1">
          <mxGeometry x="2040" y="872" width="60" height="60" as="geometry" />
        </mxCell>
        <mxCell id="y9lGfiteLyOonodlUq__-92" value="RCS&lt;br&gt;(PLAN)" style="rhombus;whiteSpace=wrap;html=1;labelBackgroundColor=none;labelBorderColor=none;fillColor=#d5e8d4;strokeColor=#82b366;" parent="1" vertex="1">
          <mxGeometry x="2100" y="872" width="60" height="60" as="geometry" />
        </mxCell>
        <mxCell id="y9lGfiteLyOonodlUq__-93" value="BKD&lt;br&gt;(ACT)" style="rhombus;whiteSpace=wrap;html=1;labelBackgroundColor=none;labelBorderColor=none;fillColor=#d5e8d4;strokeColor=#82b366;" parent="1" vertex="1">
          <mxGeometry x="2024" y="752" width="60" height="60" as="geometry" />
        </mxCell>
        <mxCell id="y9lGfiteLyOonodlUq__-94" value="FOH&lt;br&gt;(PLAN)" style="rhombus;whiteSpace=wrap;html=1;labelBackgroundColor=none;labelBorderColor=none;fillColor=#d5e8d4;strokeColor=#82b366;" parent="1" vertex="1">
          <mxGeometry x="2084" y="752" width="60" height="60" as="geometry" />
        </mxCell>
        <mxCell id="y9lGfiteLyOonodlUq__-95" value="RCS&lt;br&gt;(PLAN)" style="rhombus;whiteSpace=wrap;html=1;labelBackgroundColor=none;labelBorderColor=none;fillColor=#d5e8d4;strokeColor=#82b366;" parent="1" vertex="1">
          <mxGeometry x="2144" y="752" width="60" height="60" as="geometry" />
        </mxCell>
        <mxCell id="y9lGfiteLyOonodlUq__-96" value="MAN&lt;br&gt;(PLAN)" style="rhombus;whiteSpace=wrap;html=1;labelBackgroundColor=none;labelBorderColor=none;fillColor=#d5e8d4;strokeColor=#82b366;" parent="1" vertex="1">
          <mxGeometry x="2204" y="752" width="60" height="60" as="geometry" />
        </mxCell>
        <mxCell id="y9lGfiteLyOonodlUq__-97" value="DEP&lt;br&gt;(PLAN)" style="rhombus;whiteSpace=wrap;html=1;labelBackgroundColor=none;labelBorderColor=none;fillColor=#d5e8d4;strokeColor=#82b366;" parent="1" vertex="1">
          <mxGeometry x="2264" y="752" width="60" height="60" as="geometry" />
        </mxCell>
        <mxCell id="y9lGfiteLyOonodlUq__-98" value="MAN&lt;br&gt;(PLAN)" style="rhombus;whiteSpace=wrap;html=1;labelBackgroundColor=none;labelBorderColor=none;fillColor=#d5e8d4;strokeColor=#82b366;" parent="1" vertex="1">
          <mxGeometry x="2160" y="872" width="60" height="60" as="geometry" />
        </mxCell>
        <mxCell id="y9lGfiteLyOonodlUq__-99" value="DEP&lt;br&gt;(PLAN)" style="rhombus;whiteSpace=wrap;html=1;labelBackgroundColor=none;labelBorderColor=none;fillColor=#d5e8d4;strokeColor=#82b366;" parent="1" vertex="1">
          <mxGeometry x="2220" y="872" width="60" height="60" as="geometry" />
        </mxCell>
        <mxCell id="y9lGfiteLyOonodlUq__-100" value="Loading 2" style="whiteSpace=wrap;html=1;fontStyle=1;fillColor=#f5f5f5;strokeColor=#66B2FF;fontColor=#333333;" parent="1" vertex="1">
          <mxGeometry x="2450" y="832" width="280" height="60" as="geometry" />
        </mxCell>
        <mxCell id="y9lGfiteLyOonodlUq__-101" style="edgeStyle=orthogonalEdgeStyle;rounded=0;orthogonalLoop=1;jettySize=auto;html=1;entryX=0;entryY=0.667;entryDx=0;entryDy=0;startArrow=classic;startFill=1;strokeColor=#66B2FF;exitX=1;exitY=0.5;exitDx=0;exitDy=0;entryPerimeter=0;" parent="1" source="y9lGfiteLyOonodlUq__-100" target="y9lGfiteLyOonodlUq__-83" edge="1">
          <mxGeometry relative="1" as="geometry">
            <mxPoint x="2740" y="620" as="sourcePoint" />
            <mxPoint x="2820" y="620" as="targetPoint" />
          </mxGeometry>
        </mxCell>
        <mxCell id="y9lGfiteLyOonodlUq__-102" value="MAN&lt;br&gt;(PLAN)" style="rhombus;whiteSpace=wrap;html=1;labelBackgroundColor=none;labelBorderColor=none;fillColor=#d5e8d4;strokeColor=#82b366;" parent="1" vertex="1">
          <mxGeometry x="2810" y="690" width="60" height="60" as="geometry" />
        </mxCell>
        <mxCell id="y9lGfiteLyOonodlUq__-103" value="DEP&lt;br&gt;(PLAN)" style="rhombus;whiteSpace=wrap;html=1;labelBackgroundColor=none;labelBorderColor=none;fillColor=#d5e8d4;strokeColor=#82b366;" parent="1" vertex="1">
          <mxGeometry x="2870" y="690" width="60" height="60" as="geometry" />
        </mxCell>
        <mxCell id="y9lGfiteLyOonodlUq__-104" style="edgeStyle=orthogonalEdgeStyle;rounded=0;orthogonalLoop=1;jettySize=auto;html=1;entryX=0;entryY=0.5;entryDx=0;entryDy=0;exitX=0.058;exitY=0.967;exitDx=0;exitDy=0;exitPerimeter=0;startArrow=classic;startFill=1;strokeColor=#66B2FF;" parent="1" source="y9lGfiteLyOonodlUq__-105" target="y9lGfiteLyOonodlUq__-107" edge="1">
          <mxGeometry relative="1" as="geometry" />
        </mxCell>
        <mxCell id="y9lGfiteLyOonodlUq__-105" value="Shipment" style="whiteSpace=wrap;html=1;fontStyle=1;fillColor=#f5f5f5;strokeColor=#66B2FF;fontColor=#333333;" parent="1" vertex="1">
          <mxGeometry x="4120" y="390" width="330" height="60" as="geometry" />
        </mxCell>
        <mxCell id="y9lGfiteLyOonodlUq__-106" style="edgeStyle=orthogonalEdgeStyle;rounded=0;orthogonalLoop=1;jettySize=auto;html=1;startArrow=classic;startFill=1;strokeColor=#66B2FF;entryX=0;entryY=0.5;entryDx=0;entryDy=0;" parent="1" source="y9lGfiteLyOonodlUq__-107" target="y9lGfiteLyOonodlUq__-118" edge="1">
          <mxGeometry relative="1" as="geometry">
            <mxPoint x="4570" y="757" as="targetPoint" />
          </mxGeometry>
        </mxCell>
        <mxCell id="y9lGfiteLyOonodlUq__-107" value="Piece" style="whiteSpace=wrap;html=1;fontStyle=1;fillColor=#f5f5f5;strokeColor=#66B2FF;fontColor=#333333;" parent="1" vertex="1">
          <mxGeometry x="4160" y="580" width="280" height="60" as="geometry" />
        </mxCell>
        <mxCell id="y9lGfiteLyOonodlUq__-108" value="FOH&lt;br&gt;(PLAN)" style="rhombus;whiteSpace=wrap;html=1;labelBackgroundColor=none;labelBorderColor=none;fillColor=#d5e8d4;strokeColor=#82b366;" parent="1" vertex="1">
          <mxGeometry x="4160" y="620" width="60" height="60" as="geometry" />
        </mxCell>
        <mxCell id="y9lGfiteLyOonodlUq__-109" value="RCS&lt;br&gt;(PLAN)" style="rhombus;whiteSpace=wrap;html=1;labelBackgroundColor=none;labelBorderColor=none;fillColor=#d5e8d4;strokeColor=#82b366;" parent="1" vertex="1">
          <mxGeometry x="4220" y="620" width="60" height="60" as="geometry" />
        </mxCell>
        <mxCell id="y9lGfiteLyOonodlUq__-110" value="BKD&lt;br&gt;(ACT)" style="rhombus;whiteSpace=wrap;html=1;labelBackgroundColor=none;labelBorderColor=none;fillColor=#d5e8d4;strokeColor=#82b366;" parent="1" vertex="1">
          <mxGeometry x="4144" y="432" width="60" height="60" as="geometry" />
        </mxCell>
        <mxCell id="y9lGfiteLyOonodlUq__-111" value="FOH&lt;br&gt;(PLAN)" style="rhombus;whiteSpace=wrap;html=1;labelBackgroundColor=none;labelBorderColor=none;fillColor=#d5e8d4;strokeColor=#82b366;" parent="1" vertex="1">
          <mxGeometry x="4204" y="432" width="60" height="60" as="geometry" />
        </mxCell>
        <mxCell id="y9lGfiteLyOonodlUq__-112" value="RCS&lt;br&gt;(PLAN)" style="rhombus;whiteSpace=wrap;html=1;labelBackgroundColor=none;labelBorderColor=none;fillColor=#d5e8d4;strokeColor=#82b366;" parent="1" vertex="1">
          <mxGeometry x="4264" y="432" width="60" height="60" as="geometry" />
        </mxCell>
        <mxCell id="y9lGfiteLyOonodlUq__-113" value="MAN&lt;br&gt;(PLAN)" style="rhombus;whiteSpace=wrap;html=1;labelBackgroundColor=none;labelBorderColor=none;fillColor=#d5e8d4;strokeColor=#82b366;" parent="1" vertex="1">
          <mxGeometry x="4324" y="432" width="60" height="60" as="geometry" />
        </mxCell>
        <mxCell id="y9lGfiteLyOonodlUq__-114" value="DEP&lt;br&gt;(PLAN)" style="rhombus;whiteSpace=wrap;html=1;labelBackgroundColor=none;labelBorderColor=none;fillColor=#d5e8d4;strokeColor=#82b366;" parent="1" vertex="1">
          <mxGeometry x="4384" y="432" width="60" height="60" as="geometry" />
        </mxCell>
        <mxCell id="y9lGfiteLyOonodlUq__-115" value="MAN&lt;br&gt;(PLAN)" style="rhombus;whiteSpace=wrap;html=1;labelBackgroundColor=none;labelBorderColor=none;fillColor=#d5e8d4;strokeColor=#82b366;" parent="1" vertex="1">
          <mxGeometry x="4280" y="620" width="60" height="60" as="geometry" />
        </mxCell>
        <mxCell id="y9lGfiteLyOonodlUq__-116" value="DEP&lt;br&gt;(PLAN)" style="rhombus;whiteSpace=wrap;html=1;labelBackgroundColor=none;labelBorderColor=none;fillColor=#d5e8d4;strokeColor=#82b366;" parent="1" vertex="1">
          <mxGeometry x="4340" y="620" width="60" height="60" as="geometry" />
        </mxCell>
        <mxCell id="y9lGfiteLyOonodlUq__-118" value="Loading #1" style="whiteSpace=wrap;html=1;fontStyle=1;fillColor=#f5f5f5;strokeColor=#66B2FF;fontColor=#333333;" parent="1" vertex="1">
          <mxGeometry x="4570" y="580" width="280" height="60" as="geometry" />
        </mxCell>
        <mxCell id="y9lGfiteLyOonodlUq__-119" value="TransportMovement&lt;br&gt;LH400/16OCT2023 FRA-JFK" style="whiteSpace=wrap;html=1;fontStyle=1;fillColor=#f5f5f5;strokeColor=#66B2FF;fontColor=#333333;" parent="1" vertex="1">
          <mxGeometry x="4930" y="580" width="280" height="60" as="geometry" />
        </mxCell>
        <mxCell id="y9lGfiteLyOonodlUq__-120" value="Rescheduled shipment with one piece" style="text;html=1;strokeColor=none;fillColor=none;align=right;verticalAlign=middle;whiteSpace=wrap;rounded=0;fontSize=21;fontStyle=1" parent="1" vertex="1">
          <mxGeometry x="3450" y="473" width="550" height="30" as="geometry" />
        </mxCell>
        <mxCell id="y9lGfiteLyOonodlUq__-121" value="MAN&lt;br&gt;(PLAN)" style="rhombus;whiteSpace=wrap;html=1;labelBackgroundColor=none;labelBorderColor=none;fillColor=#d5e8d4;strokeColor=#82b366;" parent="1" vertex="1">
          <mxGeometry x="4930" y="630" width="60" height="60" as="geometry" />
        </mxCell>
        <mxCell id="y9lGfiteLyOonodlUq__-122" value="DEP&lt;br&gt;(PLAN)" style="rhombus;whiteSpace=wrap;html=1;labelBackgroundColor=none;labelBorderColor=none;fillColor=#d5e8d4;strokeColor=#82b366;" parent="1" vertex="1">
          <mxGeometry x="4990" y="630" width="60" height="60" as="geometry" />
        </mxCell>
        <mxCell id="y9lGfiteLyOonodlUq__-123" value="TransportMovement&lt;br&gt;LH400/17OCT2023 FRA-JFK" style="whiteSpace=wrap;html=1;fontStyle=1;fillColor=#f5f5f5;strokeColor=#66B2FF;fontColor=#333333;" parent="1" vertex="1">
          <mxGeometry x="4930" y="727" width="280" height="60" as="geometry" />
        </mxCell>
        <mxCell id="y9lGfiteLyOonodlUq__-124" value="MAN&lt;br&gt;(PLAN)" style="rhombus;whiteSpace=wrap;html=1;labelBackgroundColor=none;labelBorderColor=none;fillColor=#d5e8d4;strokeColor=#82b366;" parent="1" vertex="1">
          <mxGeometry x="4930" y="777" width="60" height="60" as="geometry" />
        </mxCell>
        <mxCell id="y9lGfiteLyOonodlUq__-125" value="DEP&lt;br&gt;(PLAN)" style="rhombus;whiteSpace=wrap;html=1;labelBackgroundColor=none;labelBorderColor=none;fillColor=#d5e8d4;strokeColor=#82b366;" parent="1" vertex="1">
          <mxGeometry x="4990" y="777" width="60" height="60" as="geometry" />
        </mxCell>
        <mxCell id="y9lGfiteLyOonodlUq__-127" style="edgeStyle=orthogonalEdgeStyle;rounded=0;orthogonalLoop=1;jettySize=auto;html=1;entryX=0;entryY=0.5;entryDx=0;entryDy=0;startArrow=classic;startFill=1;strokeColor=#66B2FF;exitX=1;exitY=0.5;exitDx=0;exitDy=0;" parent="1" source="y9lGfiteLyOonodlUq__-118" target="y9lGfiteLyOonodlUq__-123" edge="1">
          <mxGeometry relative="1" as="geometry">
            <mxPoint x="4850" y="757" as="sourcePoint" />
            <mxPoint x="4940" y="620" as="targetPoint" />
          </mxGeometry>
        </mxCell>
        <mxCell id="y9lGfiteLyOonodlUq__-128" value="MAN&lt;br&gt;(PLAN)" style="rhombus;whiteSpace=wrap;html=1;labelBackgroundColor=none;labelBorderColor=none;fillColor=#d5e8d4;strokeColor=#82b366;" parent="1" vertex="1">
          <mxGeometry x="4280" y="680" width="60" height="60" as="geometry" />
        </mxCell>
        <mxCell id="y9lGfiteLyOonodlUq__-129" value="DEP&lt;br&gt;(PLAN)" style="rhombus;whiteSpace=wrap;html=1;labelBackgroundColor=none;labelBorderColor=none;fillColor=#d5e8d4;strokeColor=#82b366;" parent="1" vertex="1">
          <mxGeometry x="4340" y="680" width="60" height="60" as="geometry" />
        </mxCell>
        <mxCell id="y9lGfiteLyOonodlUq__-130" value="MAN&lt;br&gt;(PLAN)" style="rhombus;whiteSpace=wrap;html=1;labelBackgroundColor=none;labelBorderColor=none;fillColor=#d5e8d4;strokeColor=#82b366;" parent="1" vertex="1">
          <mxGeometry x="4324" y="492" width="60" height="60" as="geometry" />
        </mxCell>
        <mxCell id="y9lGfiteLyOonodlUq__-131" value="DEP&lt;br&gt;(PLAN)" style="rhombus;whiteSpace=wrap;html=1;labelBackgroundColor=none;labelBorderColor=none;fillColor=#d5e8d4;strokeColor=#82b366;" parent="1" vertex="1">
          <mxGeometry x="4384" y="492" width="60" height="60" as="geometry" />
        </mxCell>
      </root>
    </mxGraphModel>
  </diagram>
</mxfile>
